<?xml version="1.0" encoding="UTF-8" standalone="no"?>
<!-- Created with Inkscape (http://www.inkscape.org/) -->

<svg
   xmlns:dc="http://purl.org/dc/elements/1.1/"
   xmlns:cc="http://creativecommons.org/ns#"
   xmlns:rdf="http://www.w3.org/1999/02/22-rdf-syntax-ns#"
   xmlns:svg="http://www.w3.org/2000/svg"
   xmlns="http://www.w3.org/2000/svg"
   xmlns:sodipodi="http://sodipodi.sourceforge.net/DTD/sodipodi-0.dtd"
   xmlns:inkscape="http://www.inkscape.org/namespaces/inkscape"
   width="260.383"
   height="32.465"
   viewBox="0 0 260.383 32.465001"
   id="svg5919"
   version="1.1"
   inkscape:version="0.91 r13725"
   sodipodi:docname="contato.svg">
  <defs
     id="defs5921">
    <clipPath
       id="id9">
      <rect
         x="2116.3101"
         y="18008.43"
         width="1246.66"
         height="1767.91"
         id="rect4463" />
    </clipPath>
    <clipPath
       id="id9-7">
      <rect
         x="2116.3101"
         y="18008.43"
         width="1246.66"
         height="1767.91"
         id="rect4463-6" />
    </clipPath>
  </defs>
  <sodipodi:namedview
     id="base"
     pagecolor="#ffffff"
     bordercolor="#666666"
     borderopacity="1.0"
     inkscape:pageopacity="0.0"
     inkscape:pageshadow="2"
     inkscape:zoom="0.98994949"
     inkscape:cx="86.59966"
     inkscape:cy="115.56597"
     inkscape:document-units="px"
     inkscape:current-layer="layer1"
     showgrid="false"
     units="px"
     inkscape:window-width="1080"
     inkscape:window-height="1897"
     inkscape:window-x="-8"
     inkscape:window-y="-8"
     inkscape:window-maximized="1" />
  <metadata
     id="metadata5924">
    <rdf:RDF>
      <cc:Work
         rdf:about="">
        <dc:format>image/svg+xml</dc:format>
        <dc:type
           rdf:resource="http://purl.org/dc/dcmitype/StillImage" />
        <dc:title></dc:title>
      </cc:Work>
    </rdf:RDF>
  </metadata>
  <g
     inkscape:label="Camada 1"
     inkscape:groupmode="layer"
     id="layer1"
     transform="translate(0,-1019.8972)">
    <g
       transform="matrix(0.03545713,0,0,0.03545713,-69.857808,132.40351)"
       style="clip-rule:evenodd;fill-rule:evenodd;image-rendering:optimizeQuality;shape-rendering:geometricPrecision;text-rendering:geometricPrecision"
       id="g4958">
      <rect
         style="fill:#3e4095"
         id="rect4960"
         ry="323.98999"
         rx="506.01999"
         height="647.97998"
         width="6885.8101"
         y="25163.869"
         x="2428"
         class="fil5" />
      <path
         style="fill:#00afef"
         inkscape:connector-curvature="0"
         id="path4962"
         d="m 2427.99,25030.05 c 252.85,0 457.82,204.97 457.82,457.82 0,252.82 -204.97,457.79 -457.82,457.79 -252.83,0 -457.79,-204.97 -457.79,-457.79 0,-252.85 204.96,-457.82 457.79,-457.82 z"
         class="fil2" />
      <path
         style="fill:#fefefe"
         inkscape:connector-curvature="0"
         id="path4964"
         d="m 2153.49,25736.3 0,2.11 2.14,0 c 2.45,-2.01 6.69,-2.9 9.8,-3.91 l 135.1,-42.93 c 8.94,-1.75 83.84,54.79 204.48,22.92 38.52,-10.15 87.58,-36.68 113.76,-64.24 22,-23.12 20.94,-18.73 43.53,-52.87 37.29,-56.44 38.9,-122.38 40.23,-125.4 l 0,-30.22 c -1.19,-2.73 -2.9,-23.45 -3.77,-28.57 -1.49,-9.01 -3.29,-17.57 -5.51,-25.93 -4.31,-16.36 -10.63,-32.04 -17.2,-46.02 -11.08,-23.52 -33.39,-55.39 -52.55,-73.73 -42.67,-40.94 -87.89,-64.06 -147.38,-74.59 -4.76,-0.84 -25.42,-2.5 -27.78,-3.56 l -31.77,0 c -3.49,1.64 -89.09,2.95 -158.13,63.76 -19.81,17.44 -37.57,36.11 -52.19,59.14 -52.87,83.24 -55.12,175.04 -15.43,261.6 11.86,25.79 14.11,11.54 5.39,38.83 l -42.72,123.61 z m 67.92,-64.81 c 7.27,-19.22 15.63,-46.07 22.71,-66.92 5.13,-15.07 6.51,-14.46 1.64,-21.57 -56.62,-82.66 -51.31,-194.96 12.27,-268.9 20.15,-23.45 37.58,-37.52 65.93,-54.31 23.74,-14.06 59.45,-24.82 91.83,-27.15 76.36,-5.48 136.27,25.87 175.03,63.17 75.18,72.3 93.37,187.38 31.86,283.79 -8.73,13.72 -16.21,21.53 -26.73,32.93 -14.29,15.51 -32.67,28.95 -50.84,39.48 -57.93,33.57 -129.85,38.96 -194.12,14.35 -7.27,-2.8 -13.43,-5.72 -20.53,-9.3 -29.72,-14.86 -14.41,-14.29 -41.16,-6.49 -7.48,2.21 -15.21,4.81 -22.77,7.18 -8.66,2.77 -38.89,13.57 -45.12,13.75 z m 115.03,-335.47 c -6.67,2.18 -6.76,2.53 -11.33,6.56 -2.06,1.8 -6.04,6.46 -8.26,9.26 -5.26,6.61 -9.33,14.47 -12.21,23.74 -6.38,20.86 -1.53,42.13 5.9,59.27 12.04,27.62 40.6,62.16 60.94,82.09 25.16,24.65 47.48,39.92 88.67,54.32 28.06,9.8 53.28,18.99 83.34,0.21 17.78,-11.05 25.52,-22.55 26.37,-44.42 0.29,-7.31 -0.18,-9.45 -5.19,-12.16 -10.34,-5.68 -55.14,-28.78 -62.86,-26.48 -3.56,1.01 -19.45,22.25 -24.6,28.15 -3.25,3.74 -5.93,6.6 -12.83,4.77 -11.78,-3.12 -36.63,-17.84 -46.37,-25.53 -13.98,-11.03 -24.04,-21.63 -35,-36.05 -15,-19.86 -16.67,-23.21 -6.29,-34.03 2.32,-2.45 2.36,-2.63 4.06,-4.71 8.85,-11 14.37,-15.57 7.23,-31.25 -4.51,-9.92 -17.44,-43.86 -21.86,-49.95 -3.61,-4.99 -5.78,-4.29 -13.1,-4.58 -6.61,-0.27 -10.53,-1.21 -16.61,0.77 z"
         class="fil8" />
      <text
         style="font-weight:bold;font-size:402.95999146px;font-family:Calibri;fill:#ffffff"
         id="text4966"
         class="fil0 fnt40"
         y="25589.01"
         x="2987">Clique aqui! Entre agora em contato.</text>
    </g>
  </g>
</svg>
