<?xml version="1.0" encoding="UTF-8" standalone="no"?>
<!-- Created with Inkscape (http://www.inkscape.org/) -->

<svg
   xmlns:dc="http://purl.org/dc/elements/1.1/"
   xmlns:cc="http://creativecommons.org/ns#"
   xmlns:rdf="http://www.w3.org/1999/02/22-rdf-syntax-ns#"
   xmlns:svg="http://www.w3.org/2000/svg"
   xmlns="http://www.w3.org/2000/svg"
   xmlns:sodipodi="http://sodipodi.sourceforge.net/DTD/sodipodi-0.dtd"
   xmlns:inkscape="http://www.inkscape.org/namespaces/inkscape"
   width="90"
   height="90"
   viewBox="0 0 90.000001 90.000001"
   id="svg5919"
   version="1.1"
   inkscape:version="0.91 r13725"
   sodipodi:docname="icon-conheca.svg">
  <defs
     id="defs5921" />
  <sodipodi:namedview
     id="base"
     pagecolor="#ffffff"
     bordercolor="#666666"
     borderopacity="1.0"
     inkscape:pageopacity="0.0"
     inkscape:pageshadow="2"
     inkscape:zoom="2.8"
     inkscape:cx="47.935579"
     inkscape:cy="70.237798"
     inkscape:document-units="px"
     inkscape:current-layer="layer1"
     showgrid="false"
     units="px"
     inkscape:window-width="1080"
     inkscape:window-height="1897"
     inkscape:window-x="-8"
     inkscape:window-y="-8"
     inkscape:window-maximized="1" />
  <metadata
     id="metadata5924">
    <rdf:RDF>
      <cc:Work
         rdf:about="">
        <dc:format>image/svg+xml</dc:format>
        <dc:type
           rdf:resource="http://purl.org/dc/dcmitype/StillImage" />
        <dc:title></dc:title>
      </cc:Work>
    </rdf:RDF>
  </metadata>
  <g
     inkscape:label="Camada 1"
     inkscape:groupmode="layer"
     id="layer1"
     transform="translate(0,-962.36216)">
    <rect
       style="clip-rule:evenodd;fill:#00afef;fill-rule:evenodd;image-rendering:optimizeQuality;shape-rendering:geometricPrecision;text-rendering:geometricPrecision"
       id="rect4661"
       height="90.000122"
       width="90.000122"
       y="962.36212"
       x="-6.1035156e-005"
       class="fil2" />
    <path
       style="clip-rule:evenodd;fill:#ffffff;fill-rule:evenodd;image-rendering:optimizeQuality;shape-rendering:geometricPrecision;text-rendering:geometricPrecision"
       inkscape:connector-curvature="0"
       id="path4671"
       d="m 58.18439,1023.1428 0,-0.5992 1.39807,0.1 c 0.34429,0 0.38684,-0.074 0.69957,-0.1 0,0.8609 0.19679,1.0034 0.76658,1.3307 0.68787,0.3953 2.0207,1.1314 2.36216,1.8328 0.25564,0.5247 0.26734,1.0786 0.26734,1.8302 -0.99457,0.2319 -1.63847,0.9989 -4.59489,0.9989 -2.27173,0 -3.32233,-0.7953 -4.19528,-0.9989 0,-2.4071 0.28401,-2.1742 2.23805,-3.4552 0.31025,-0.2039 1.0584,-0.556 1.0584,-0.9397 z m 12.38588,-4.558 0,0.657 c -0.0638,2.2147 -0.77757,4.3821 -2.21111,6.2851 -0.43293,0.5751 -0.75417,0.9258 -1.25979,1.4371 -0.80523,0.8145 -2.15579,1.7105 -3.29255,2.2015 -2.99648,1.2946 -6.11706,1.1776 -9.10539,-0.043 -3.77264,-1.5409 -6.70636,-5.6536 -6.70636,-9.9751 0,-2.6444 0.49605,-2.9532 0.59958,-4.1953 -0.41662,-0.097 -1.48849,-0.684 -1.89908,-0.8978 -2.18133,-1.1353 -1.12789,-1.2062 -5.29304,0.9978 0.25245,1.0825 0.59958,2.0288 0.59958,3.3961 0,4.1169 -1.66011,6.9021 -4.17295,9.1121 -0.75808,0.6669 -1.64805,1.2102 -2.60398,1.5913 -2.69509,1.0751 -5.26325,1.2754 -8.09557,0.3734 -1.95333,-0.6219 -4.91542,-2.6501 -5.78376,-4.4148 -0.25565,-0.5194 0.0642,-1.0687 0.67865,-1.0687 0.70169,0 1.03463,0.8719 1.47147,1.3254 0.46626,0.4844 0.77438,0.8024 1.32538,1.1719 0,-1.0808 0.46662,-1.9129 1.21228,-2.5834 0.34075,-0.3067 2.08417,-1.2485 2.08417,-1.6119 0,-0.4592 -0.25281,-0.501 -0.61589,-0.7829 -0.63574,-0.4925 -1.21795,-1.196 -1.58493,-1.9111 -0.51519,-1.0038 -0.74354,-2.454 -0.37904,-3.7815 1.07294,-3.9071 6.01991,-5.3636 8.95045,-2.4923 2.18522,2.1402 2.17706,5.8341 -0.15318,7.8934 -0.24111,0.2131 -0.71517,0.5925 -1.02329,0.6748 0,0.5648 -0.10815,0.4907 0.24784,0.7513 0.58044,0.4241 1.2637,0.707 1.82144,1.1758 0.65347,0.5492 1.23851,1.4995 1.32716,2.5681 1.67535,-1.1218 3.69569,-4.197 3.69569,-6.9921 l 0,-1.2988 c 0,-3.5709 -2.5951,-6.7056 -5.59194,-8.1924 -1.10059,-0.546 -2.93514,-0.8974 -4.39668,-0.8974 -3.71591,0 -7.26411,2.5192 -8.64906,5.8352 -1.57288,3.7659 -0.44073,5.4469 -0.44073,6.8507 0,0.974 -1.24242,0.9336 -1.50232,0.1039 -0.21452,-0.6854 -0.34323,-1.3978 -0.39535,-2.1204 l 0,-1.5307 c 0.15637,-2.2352 0.97578,-4.4488 2.19621,-6.1433 1.13534,-1.5764 2.74155,-2.8355 4.56688,-3.6237 2.521,-1.0889 5.34304,-1.2059 8.03423,-0.384 0.46697,0.1429 0.97649,0.3674 1.41971,0.5783 0.46059,0.2191 0.87898,0.4783 1.26511,0.7329 1.24561,0.8216 3.47161,2.9128 3.79427,4.2967 0.58965,-0.3117 1.20802,-0.59 1.79944,-0.8978 0.51413,-0.2673 1.19775,-0.7605 1.79697,-0.8999 l 0.0124,-4.208 c -0.0195,-0.4493 0.0642,-0.3996 -0.31486,-0.4844 -0.11594,-0.026 -0.62936,-0.057 -0.72651,-0.072 -1.94802,-0.3063 -3.71697,-1.1282 -5.10831,-2.1838 -1.2605,-0.9563 -2.24054,-2.0448 -3.02308,-3.4691 -1.0084,-1.83462 -1.4275,-3.55352 -1.4275,-5.96432 0,-5.0384 4.05629,-9.6078 8.87846,-10.5999 1.49062,-0.3063 3.31915,-0.3517 4.80835,0.01 1.13711,0.2752 2.75218,0.7177 3.67194,1.5233 0.58539,0.5127 0.18154,1.3753 -0.5776,1.3753 -0.14254,0 -0.9967,-0.4985 -1.19845,-0.5999 -3.25922,-1.6367 -7.54812,-1.2052 -10.31271,1.0754 -5.66498,4.6733 -4.19777,12.51282 0.1241,15.40652 0,-1.5807 0.9967,-2.5582 2.13948,-3.2542 0.35138,-0.2139 0.79885,-0.55822 1.15662,-0.64152 l 0,-0.6992 c -0.81587,-0.4319 -1.83739,-1.4718 -2.22813,-2.3664 -2.44796,-5.6068 4.42682,-10.2893 8.59906,-6.2018 1.07684,1.0548 1.62039,2.4068 1.62039,4.1733 0,1.5406 -1.33035,4.0035 -2.79685,4.3953 0,0.5644 -0.10815,0.4907 0.24784,0.7509 1.47821,1.08082 2.95216,1.38572 3.14824,3.74402 1.02755,-0.6879 1.81895,-1.7289 2.47916,-2.815 1.40056,-2.30362 1.65408,-5.75722 0.60384,-8.35902 -0.28011,-0.6953 -0.4691,-1.1041 -0.86445,-1.7324 -0.20778,-0.3294 -1.01974,-1.2524 -1.01974,-1.5775 0,-0.5794 0.76587,-1.2772 1.62393,-0.2255 1.7452,2.1377 2.47172,4.5952 2.47172,7.5172 0,5.45232 -5.09271,10.78792 -10.48858,10.78792 l 0,4.6949 c 0.57157,0.1333 1.19136,0.5953 1.73173,0.8655 0.45882,0.2294 1.32539,0.73 1.7647,0.8321 1.36297,-2.5763 3.78363,-4.753 6.63332,-5.5525 2.64971,-0.7439 5.40651,-0.6815 7.94914,0.4595 1.51082,0.6783 2.95748,1.6541 3.95453,2.9376 0.59816,0.7698 1.24135,1.553 1.63989,2.4554 0.67901,1.5374 1.05379,3.1408 1.09917,4.7311 z m -40.85441,3.9588 c 0.54568,0.045 0.27231,0.1 1.1988,0.1 0.50207,0 0.44712,-0.09 0.89884,-0.1 0,1.2403 0.16204,0.9219 2.15863,2.2366 1.09279,0.7198 1.13782,1.0538 1.13782,2.7579 -1.074,0.2503 -1.73775,0.9988 -4.4949,0.9988 -2.4742,0 -3.48154,-0.8091 -4.29528,-0.9988 0,-1.6133 0.12233,-2.0509 1.33709,-2.8582 0.43648,-0.2897 0.84069,-0.5457 1.29277,-0.8053 0.56979,-0.3272 0.76658,-0.4698 0.76658,-1.3307 z m 1.29879,-1.4985 c -1.03393,0 -1.11087,0.046 -1.99907,-0.3978 -0.58114,-0.29 -0.58008,-0.3308 -1.024,-0.7744 -2.40506,-2.4001 -0.44145,-6.4195 2.52383,-6.4195 1.25412,0 2.25224,0.3003 3.02237,1.1729 2.43165,2.7547 0.18544,6.4188 -2.52313,6.4188 z m 22.87446,-3.9953 c 0,1.274 0.19324,2.2023 0.89777,3.1976 0.25175,0.3545 0.49144,0.668 0.82332,0.9743 0.24111,0.2223 0.75878,0.6379 1.07541,0.7226 0,1.1223 -0.27514,0.4791 -2.01361,1.8821 -0.67794,0.5468 -1.29099,1.5105 -1.38247,2.6128 -1.68031,-1.125 -3.6957,-4.1928 -3.6957,-6.9921 0,-1.9767 0.0238,-3.0961 0.9499,-4.9438 2.44229,-4.8725 8.31363,-6.8078 12.90214,-4.5137 2.7848,1.3921 4.619,3.5713 5.34729,6.6394 0.5315,2.2377 0.19856,4.8051 -0.88785,6.7457 -0.68255,1.2197 -1.61968,2.421 -2.72913,3.1642 0,-0.7567 -0.25707,-1.475 -0.68291,-2.0143 l -0.42477,-0.4737 c -1.16761,-1.1219 -2.18877,-1.0599 -2.18877,-1.9069 0,-0.4209 1.76257,-0.951 2.48696,-3.2068 0.12056,-0.3744 0.3099,-1.2332 0.3099,-1.6877 0,-0.4369 -0.24182,-1.7116 -0.43896,-1.9601 -0.38542,-0.4858 -1.35907,-0.295 -1.35907,0.3617 0,0.6559 0.96585,3.4638 -1.81683,4.9757 -2.40186,1.3055 -5.64584,-0.3968 -5.6469,-3.3777 -7.1e-4,-2.0835 1.5743,-3.796 4.06764,-3.796 1.02223,0 1.58068,0.5995 2.09765,0.5995 1.43636,0 1.01442,-2.1976 -2.29763,-2.1976 -2.91635,0 -5.39409,2.4118 -5.39409,5.1941 z m -9.88899,-17.38072 c 0.54568,0.045 0.27231,0.1 1.1988,0.1 0.50207,0 0.44712,-0.09 0.89884,-0.1 0,1.10912 0.30351,1.12362 2.10403,2.19132 1.11122,0.6595 1.19242,1.1179 1.19242,2.8032 -1.05662,0.2464 -1.53494,0.9988 -4.69488,0.9988 -0.83537,0 -1.49877,-0.134 -2.17707,-0.3198 l -1.91823,-0.679 c 0,-2.4717 0.76481,-2.4483 2.63872,-3.6542 0.60986,-0.3922 0.75772,-0.3751 0.75772,-1.34002 z m 1.49841,-1.4984 -0.7992,0 c -2.83302,0 -4.78068,-4.0329 -2.4742,-6.3703 2.66531,-2.7011 6.66949,-0.6031 6.66949,2.5746 0,1.9058 -1.75584,3.7957 -3.39573,3.7957 z"
       class="fil0" />
  </g>
</svg>
