<?xml version="1.0" encoding="UTF-8" standalone="no"?>
<!-- Created with Inkscape (http://www.inkscape.org/) -->

<svg
   xmlns:dc="http://purl.org/dc/elements/1.1/"
   xmlns:cc="http://creativecommons.org/ns#"
   xmlns:rdf="http://www.w3.org/1999/02/22-rdf-syntax-ns#"
   xmlns:svg="http://www.w3.org/2000/svg"
   xmlns="http://www.w3.org/2000/svg"
   xmlns:sodipodi="http://sodipodi.sourceforge.net/DTD/sodipodi-0.dtd"
   xmlns:inkscape="http://www.inkscape.org/namespaces/inkscape"
   width="9.0311108mm"
   height="9.0311108mm"
   viewBox="0 0 31.999999 31.999998"
   id="svg9543"
   version="1.1"
   inkscape:version="0.91 r13725"
   sodipodi:docname="icon-whatsapp.svg">
  <defs
     id="defs9545" />
  <sodipodi:namedview
     id="base"
     pagecolor="#ffffff"
     bordercolor="#666666"
     borderopacity="1.0"
     inkscape:pageopacity="0.0"
     inkscape:pageshadow="2"
     inkscape:zoom="7.9195959"
     inkscape:cx="32.674495"
     inkscape:cy="0.55482542"
     inkscape:document-units="px"
     inkscape:current-layer="layer1"
     showgrid="false"
     fit-margin-top="0"
     fit-margin-left="0"
     fit-margin-right="0"
     fit-margin-bottom="0"
     inkscape:window-width="2560"
     inkscape:window-height="1057"
     inkscape:window-x="1072"
     inkscape:window-y="-8"
     inkscape:window-maximized="0" />
  <metadata
     id="metadata9548">
    <rdf:RDF>
      <cc:Work
         rdf:about="">
        <dc:format>image/svg+xml</dc:format>
        <dc:type
           rdf:resource="http://purl.org/dc/dcmitype/StillImage" />
        <dc:title></dc:title>
      </cc:Work>
    </rdf:RDF>
  </metadata>
  <g
     inkscape:label="Camada 1"
     inkscape:groupmode="layer"
     id="layer1"
     transform="translate(968.77484,50.862965)">
    <path
       inkscape:connector-curvature="0"
       style="clip-rule:evenodd;fill:#fefefe;fill-rule:evenodd;image-rendering:optimizeQuality;shape-rendering:geometricPrecision;text-rendering:geometricPrecision"
       d="m -952.77481,-50.862965 c -8.83817,0 -16.00003,7.161862 -16.00003,16.000026 0,8.836282 7.16186,15.999974 16.00003,15.999974 8.83811,0 15.99997,-7.163692 15.99997,-15.999974 0,-8.838164 -7.16186,-16.000026 -15.99997,-16.000026 z m -0.4083,5.575007 1.11295,0 c 0.0816,0.0366 0.80316,0.09096 0.97003,0.122331 2.07973,0.366993 3.66601,1.174588 5.15631,2.603719 0.66733,0.64135 1.45051,1.760262 1.83795,2.583279 0.23002,0.487233 0.4522,1.03213 0.6024,1.603061 0.0779,0.292758 0.13226,0.593515 0.18402,0.908753 0.0314,0.177746 0.0899,0.904466 0.13278,1.000658 l 0,1.051682 c -0.047,0.105602 -0.0957,2.408094 -1.39886,4.380344 -0.78966,1.191893 -0.75212,1.03992 -1.52135,1.848089 -0.9157,0.962025 -2.63456,1.89033 -3.98214,2.246345 -4.21519,1.112168 -6.83418,-0.857572 -7.14743,-0.796407 l -4.71728,1.490715 c -0.10926,0.03659 -0.26191,0.07214 -0.34713,0.14272 l -0.0716,0 0,-0.07162 1.49072,-4.319127 c 0.30583,-0.954601 0.23159,-0.455343 -0.18402,-1.35798 -1.38653,-3.025187 -1.3171,-6.238471 0.53094,-9.148697 0.50971,-0.802576 1.13443,-1.452657 1.8277,-2.062535 2.41159,-2.126105 5.4016,-2.168398 5.52393,-2.225904 z m -0.0209,1.511156 c -1.13261,0.08155 -2.37573,0.448024 -3.20612,0.939388 -0.98989,0.585726 -1.60322,1.07986 -2.30762,1.899165 -2.22067,2.583958 -2.40668,6.514081 -0.42868,9.403972 0.17043,0.248322 0.11658,0.22741 -0.0612,0.755578 -0.24832,0.728498 -0.53225,1.667154 -0.78622,2.338198 0.21696,-0.0052 1.27031,-0.383723 1.57243,-0.479915 0.26505,-0.08365 0.53502,-0.179314 0.79641,-0.255118 0.93426,-0.273938 0.39993,-0.294326 1.43969,0.224797 0.24675,0.12599 0.46109,0.228456 0.71475,0.326739 2.2466,0.86003 4.76401,0.673031 6.79006,-0.500303 0.63209,-0.366993 1.27616,-0.837132 1.77662,-1.378421 0.36699,-0.398361 0.62337,-0.675435 0.92919,-1.153782 2.15021,-3.368027 1.5155,-7.388017 -1.11295,-9.914521 -1.355,-1.303089 -3.44874,-2.396279 -6.11614,-2.205464 z m -2.19532,3.583884 c 0.25564,0.01046 0.33354,-0.02091 0.45953,0.153175 0.15369,0.211205 0.60825,1.399437 0.76582,1.746042 0.25041,0.548661 0.0544,0.707221 -0.25512,1.092512 -0.0591,0.07214 -0.0612,0.07789 -0.14272,0.163108 -0.36176,0.377972 -0.30007,0.501349 0.2248,1.194663 0.38372,0.503963 0.73775,0.868499 1.22525,1.255881 0.33928,0.26871 1.20177,0.789297 1.6133,0.898559 0.2431,0.06482 0.33615,-0.04182 0.44907,-0.173564 0.18193,-0.205976 0.74183,-0.943623 0.86787,-0.980218 0.26871,-0.07999 1.82363,0.73106 2.18508,0.929194 0.17565,0.09462 0.195,0.163109 0.18402,0.418749 -0.0314,0.763681 -0.29799,1.166694 -0.91895,1.551985 -1.051,0.658393 -1.9276,0.342946 -2.91002,0 -1.44026,-0.503962 -2.22355,-1.037201 -3.10402,-1.899165 -0.70994,-0.698803 -1.70302,-1.90157 -2.1238,-2.869188 -0.26139,-0.598743 -0.43705,-1.342401 -0.21434,-2.072729 0.10194,-0.324125 0.24518,-0.595502 0.42868,-0.827094 0.0779,-0.09776 0.22375,-0.263483 0.29589,-0.32674 0.15945,-0.140628 0.15631,-0.148993 0.38791,-0.224796 l 0,-0.01046 c 0.21329,-0.06796 0.35026,-0.03137 0.58201,-0.02091 z"
       id="path8344" />
  </g>
</svg>
