<?xml version="1.0" encoding="UTF-8" standalone="no"?>
<!-- Created with Inkscape (http://www.inkscape.org/) -->

<svg
   xmlns:dc="http://purl.org/dc/elements/1.1/"
   xmlns:cc="http://creativecommons.org/ns#"
   xmlns:rdf="http://www.w3.org/1999/02/22-rdf-syntax-ns#"
   xmlns:svg="http://www.w3.org/2000/svg"
   xmlns="http://www.w3.org/2000/svg"
   xmlns:sodipodi="http://sodipodi.sourceforge.net/DTD/sodipodi-0.dtd"
   xmlns:inkscape="http://www.inkscape.org/namespaces/inkscape"
   width="9.0311117mm"
   height="9.0311022mm"
   viewBox="0 0 32.000002 31.999968"
   id="svg9543"
   version="1.1"
   inkscape:version="0.91 r13725"
   sodipodi:docname="icon-email.svg">
  <defs
     id="defs9545" />
  <sodipodi:namedview
     id="base"
     pagecolor="#ffffff"
     bordercolor="#666666"
     borderopacity="1.0"
     inkscape:pageopacity="0.0"
     inkscape:pageshadow="2"
     inkscape:zoom="11.2"
     inkscape:cx="-13.536904"
     inkscape:cy="6.6015015"
     inkscape:document-units="px"
     inkscape:current-layer="layer1"
     showgrid="false"
     fit-margin-top="0"
     fit-margin-left="0"
     fit-margin-right="0"
     fit-margin-bottom="0"
     inkscape:window-width="2560"
     inkscape:window-height="1057"
     inkscape:window-x="1072"
     inkscape:window-y="-8"
     inkscape:window-maximized="0" />
  <metadata
     id="metadata9548">
    <rdf:RDF>
      <cc:Work
         rdf:about="">
        <dc:format>image/svg+xml</dc:format>
        <dc:type
           rdf:resource="http://purl.org/dc/dcmitype/StillImage" />
        <dc:title></dc:title>
      </cc:Work>
    </rdf:RDF>
  </metadata>
  <g
     inkscape:label="Camada 1"
     inkscape:groupmode="layer"
     id="layer1"
     transform="translate(915.89789,42.878554)">
    <path
       style="clip-rule:evenodd;fill:#fefefe;fill-rule:evenodd;image-rendering:optimizeQuality;shape-rendering:geometricPrecision;text-rendering:geometricPrecision"
       d="m -899.89789,-42.878554 c -8.83815,0 -16,7.161855 -16,15.999983 0,8.838128 7.16185,15.999984 16,15.999984 8.83815,0 16,-7.161856 16,-15.999984 0,-8.838128 -7.16185,-15.999983 -16,-15.999983 z m -7.43328,9.597952 15.29545,0 c 1.522,0 1.21501,0.424876 1.21501,2.69559 l 0,7.872361 c 0,2.005629 0.36933,2.236117 -1.66432,2.236117 l -15.18311,0 c -1.54026,-0.0057 -1.33111,-0.302095 -1.32736,-1.786853 l 0,-9.567316 c -0.002,-1.553341 0.15535,-1.449899 1.66433,-1.449899 z m 13.76384,1.439688 -12.67136,0.01029 c 0.18878,0.341084 4.09266,3.680332 4.71732,4.206762 0.55614,0.472662 0.97927,0.964069 1.61329,1.347795 0.42077,-0.2039 0.54092,-0.384807 0.89852,-0.714739 l 2.34845,-2.031908 c 0.57651,-0.494935 0.97546,-0.892766 1.55198,-1.378426 0.43568,-0.365158 1.31593,-1.004114 1.5418,-1.439694 z m 1.28651,0.949584 c -0.32252,0.161258 -4.32762,3.675409 -4.59474,4.012759 0.26131,0.331826 4.26934,3.85986 4.60498,4.02297 l 0.0103,-0.980215 0.0103,-6.075299 -0.0309,-0.980215 z m -15.27503,0.03086 0,7.974466 c 0.44853,-0.161258 1.91667,-1.545239 2.36886,-1.96043 0.54869,-0.504194 1.91653,-1.510102 2.26677,-2.021698 -0.20216,-0.292887 -4.26652,-3.858872 -4.63563,-3.992338 z m 5.69751,4.982763 c -0.27262,0.38743 -2.6632,2.343776 -3.32865,2.940651 -0.44133,0.396688 -0.81277,0.582667 -1.0517,1.031267 l 12.67136,-0.01029 c -0.23559,-0.450441 -0.68114,-0.70048 -1.11296,-1.082319 l -3.31841,-2.858962 c -0.61911,0.257652 -1.27818,1.321593 -1.89919,1.306954 -0.63207,-0.01492 -1.24495,-1.064157 -1.96045,-1.32738 z"
       id="path8354"
       inkscape:connector-curvature="0" />
  </g>
</svg>
