<?xml version="1.0" encoding="UTF-8" standalone="no"?>
<!-- Created with Inkscape (http://www.inkscape.org/) -->

<svg
   xmlns:dc="http://purl.org/dc/elements/1.1/"
   xmlns:cc="http://creativecommons.org/ns#"
   xmlns:rdf="http://www.w3.org/1999/02/22-rdf-syntax-ns#"
   xmlns:svg="http://www.w3.org/2000/svg"
   xmlns="http://www.w3.org/2000/svg"
   xmlns:sodipodi="http://sodipodi.sourceforge.net/DTD/sodipodi-0.dtd"
   xmlns:inkscape="http://www.inkscape.org/namespaces/inkscape"
   width="90"
   height="90"
   viewBox="0 0 90.000001 90.000001"
   id="svg5919"
   version="1.1"
   inkscape:version="0.91 r13725"
   sodipodi:docname="icon-rastreamento.svg">
  <defs
     id="defs5921" />
  <sodipodi:namedview
     id="base"
     pagecolor="#ffffff"
     bordercolor="#666666"
     borderopacity="1.0"
     inkscape:pageopacity="0.0"
     inkscape:pageshadow="2"
     inkscape:zoom="2.8"
     inkscape:cx="44.007008"
     inkscape:cy="73.809227"
     inkscape:document-units="px"
     inkscape:current-layer="layer1"
     showgrid="false"
     units="px"
     inkscape:window-width="1080"
     inkscape:window-height="1897"
     inkscape:window-x="-8"
     inkscape:window-y="-8"
     inkscape:window-maximized="1" />
  <metadata
     id="metadata5924">
    <rdf:RDF>
      <cc:Work
         rdf:about="">
        <dc:format>image/svg+xml</dc:format>
        <dc:type
           rdf:resource="http://purl.org/dc/dcmitype/StillImage" />
        <dc:title></dc:title>
      </cc:Work>
    </rdf:RDF>
  </metadata>
  <g
     inkscape:label="Camada 1"
     inkscape:groupmode="layer"
     id="layer1"
     transform="translate(0,-962.36216)">
    <rect
       style="clip-rule:evenodd;fill:#00afef;fill-rule:evenodd;image-rendering:optimizeQuality;shape-rendering:geometricPrecision;text-rendering:geometricPrecision"
       id="rect4635"
       height="90.000122"
       width="90.000122"
       y="962.36212"
       x="-6.1035156e-005"
       class="fil2" />
    <g
       transform="matrix(0.03545713,0,0,0.03545713,-52.140895,548.82134)"
       style="clip-rule:evenodd;fill-rule:evenodd;image-rendering:optimizeQuality;shape-rendering:geometricPrecision;text-rendering:geometricPrecision"
       id="g4637">
      <g
         id="g4639">
        <path
           style="fill:#ffffff;fill-rule:nonzero"
           inkscape:connector-curvature="0"
           id="path4641"
           d="m 2904.98,13502.61 -69.31,0 0,-155.74 49.86,-25.59 82.42,-12.21 152.67,-103.85 258.47,0 168.55,110.63 192.18,10.39 57.29,52.29 0,124.08 -90.66,0 c -8.88,36.25 -41.58,63.14 -80.57,63.14 -45.81,0 -82.95,-37.14 -82.95,-82.95 0,-45.81 37.14,-82.95 82.95,-82.95 41.17,0 75.33,30 81.83,69.32 l 55.94,0 0,-75.96 -37.58,-34.31 -189.32,-10.23 -24.46,-16.06 0,2.38 -256.62,0 0,-33.44 209.3,0 -95.8,-62.9 -238.52,0 -150.48,102.37 -84.61,12.53 -26.44,13.58 0,102.03 35.87,0 0,33.45 z m 755.92,-54.83 c -8.96,-8.95 -21.34,-14.49 -35.02,-14.49 -13.67,0 -26.05,5.54 -35.01,14.49 -8.95,8.96 -14.5,21.35 -14.5,35.02 0,13.67 5.55,26.05 14.5,35.01 8.95,8.95 21.34,14.5 35.01,14.5 13.68,0 26.05,-5.55 35.02,-14.5 8.95,-8.95 14.49,-21.34 14.49,-35.01 0,-13.68 -5.54,-26.05 -14.49,-35.02 z m -624.41,-47.94 c 41.17,0 75.33,30 81.83,69.32 l 393.96,0 0,33.45 -395.23,0 c -8.88,36.25 -41.58,63.14 -80.57,63.14 -45.81,0 -82.94,-37.14 -82.94,-82.95 0,-45.81 37.13,-82.95 82.94,-82.95 z m 35.02,47.94 c -8.95,-8.95 -21.34,-14.49 -35.02,-14.49 -13.67,0 -26.05,5.54 -35.01,14.49 -8.95,8.96 -14.5,21.35 -14.5,35.02 0,13.67 5.55,26.05 14.5,35.01 8.95,8.95 21.34,14.5 35.01,14.5 13.68,0 26.06,-5.55 35.02,-14.5 8.95,-8.95 14.5,-21.34 14.5,-35.01 0,-13.68 -5.55,-26.05 -14.5,-35.02 z m 37.62,-146.24 114.25,0 0,33.45 -114.25,0 0,-33.45 z"
           class="fil6" />
        <path
           style="fill:#ffffff"
           inkscape:connector-curvature="0"
           id="path4643"
           d="m 1878.57,13399.84 c 45.81,0 82.95,37.14 82.95,82.95 l 0,-16.73 376.4,0 0,33.45 -376.4,0 0,-16.72 c 0,45.81 -37.14,82.95 -82.95,82.95 -45.82,0 -82.95,-37.14 -82.95,-82.95 0,-45.81 37.13,-82.95 82.95,-82.95 z m 667.43,-48.83 51.27,0 0,-36.64 -99.2,-44.18 -16.64,-116.4 c -2.13,-12 -5.88,-21.06 -11.22,-27.17 -4.49,-5.14 -10.48,-8.44 -17.98,-9.92 l -121.38,0 0,132.46 111.99,0 0,33.45 -145.44,0 0,-165.91 -550.21,0 c -7.82,3.04 -14.28,7 -18.88,12.18 -4.62,5.22 -7.66,12.09 -8.69,21.07 l 0,133.89 51.27,0 0,33.45 -51.27,0 0,33.73 51.27,0 0,33.45 -51.27,0 0,81.6 38.96,0 0,33.45 -72.41,0 c 0,-105.01 -8.95,-252.07 0.14,-351.27 1.57,-17.21 7.58,-30.75 17.05,-41.43 9.2,-10.38 21.33,-17.61 35.52,-22.57 l 2.81,-0.98 712.66,0 1.63,0.26 c 16.15,2.61 29.26,9.66 39.32,21.17 9.48,10.85 15.85,25.31 19.05,43.37 l 14.16,99.22 102.21,45.5 0,207.42 -94.53,-0.74 0.13,-16.66 c 0,45.81 -37.13,82.95 -82.95,82.95 -45.82,0 -82.95,-37.14 -82.95,-82.95 0,-45.81 37.13,-82.95 82.95,-82.95 45.82,0 82.95,37.14 82.95,82.95 l 0.13,-16.66 60.82,0.48 0,-82.15 -51.27,0 0,-33.45 z m -57.62,96.76 c -8.96,-8.95 -21.34,-14.49 -35.02,-14.49 -13.67,0 -26.05,5.54 -35.01,14.49 -8.96,8.96 -14.5,21.35 -14.5,35.02 0,13.67 5.54,26.05 14.5,35.01 8.95,8.95 21.34,14.5 35.01,14.5 13.68,0 26.05,-5.55 35.02,-14.5 8.95,-8.95 14.49,-21.34 14.49,-35.01 0,-13.68 -5.54,-26.05 -14.49,-35.02 z m -574.8,0 c -8.95,-8.95 -21.34,-14.49 -35.01,-14.49 -13.67,0 -26.05,5.54 -35.01,14.49 -8.96,8.96 -14.5,21.35 -14.5,35.02 0,13.67 5.54,26.05 14.5,35.01 8.95,8.95 21.34,14.5 35.01,14.5 13.67,0 26.05,-5.55 35.01,-14.5 8.95,-8.95 14.5,-21.34 14.5,-35.01 0,-13.68 -5.55,-26.05 -14.5,-35.02 z"
           class="fil0" />
      </g>
      <path
         style="fill:#ffffff;fill-rule:nonzero"
         inkscape:connector-curvature="0"
         id="path4645"
         d="m 2148.38,12739.01 0,-440.25 844.81,0 0,460.96 -844.81,0 0,-20.71 z m 1141.17,69.03 -63.56,0 0,-41.4 63.56,0 0,-113.33 -56.64,-148.85 -147,0 0,144.67 140.08,0 0,41.41 -140.08,0 0,64.68 -41.41,0 0,-292.17 216.91,0 69.55,182.78 0,294.45 -137.15,0 c -9.88,33.9 -41.17,58.67 -78.26,58.67 -45.02,0 -81.51,-36.5 -81.51,-81.51 0,-45.01 36.5,-81.5 81.51,-81.5 38.62,0 70.98,26.87 79.38,62.94 l 94.62,0 0,-90.82 z m -145.63,81.02 c -7.26,-7.26 -17.29,-11.74 -28.36,-11.74 -11.08,0 -21.11,4.49 -28.36,11.74 -7.26,7.26 -11.74,17.29 -11.74,28.36 0,11.08 4.49,21.11 11.74,28.36 7.26,7.26 17.28,11.74 28.36,11.74 11.07,0 21.11,-4.49 28.36,-11.74 7.25,-7.26 11.74,-17.28 11.74,-28.36 0,-11.07 -4.5,-21.11 -11.74,-28.36 z m -433.97,28.36 c 0,-45.01 36.5,-81.5 81.51,-81.5 45.01,0 81.5,36.5 81.5,81.5 l 0,-18.57 99.51,0 0,41.41 -99.51,0 0,-22.84 c 0,45.02 -36.5,81.51 -81.5,81.51 -45.02,0 -81.51,-36.5 -81.51,-81.51 z m 109.88,-28.36 c -7.26,-7.26 -17.29,-11.74 -28.36,-11.74 -11.08,0 -21.11,4.49 -28.36,11.74 -7.26,7.26 -11.74,17.29 -11.74,28.36 0,11.08 4.49,21.11 11.74,28.36 7.26,7.26 17.28,11.74 28.36,11.74 11.07,0 21.11,-4.49 28.36,-11.74 7.26,-7.26 11.74,-17.28 11.74,-28.36 0,-11.07 -4.49,-21.11 -11.74,-28.36 z m -473.99,28.36 c 0,-24.16 10.52,-45.87 27.22,-60.8 l -54.45,0 c 16.71,14.93 27.23,36.64 27.23,60.8 z m 135.79,-60.8 c 16.71,14.93 27.23,36.64 27.23,60.8 0,45.02 -36.5,81.51 -81.51,81.51 -45.01,0 -81.5,-36.5 -81.5,-81.51 0,45.02 -36.5,81.51 -81.5,81.51 -45.02,0 -81.51,-36.5 -81.51,-81.51 0,-24.16 10.52,-45.87 27.23,-60.8 l -40.96,0 0,-41.4 479.37,0 0,41.4 -166.84,0 z m -25.92,32.44 c -7.25,-7.26 -17.28,-11.74 -28.36,-11.74 -11.07,0 -21.11,4.49 -28.35,11.74 -7.26,7.26 -11.75,17.29 -11.75,28.36 0,11.08 4.5,21.11 11.75,28.36 7.25,7.26 17.28,11.74 28.35,11.74 11.08,0 21.12,-4.49 28.36,-11.74 7.26,-7.26 11.75,-17.28 11.75,-28.36 0,-11.07 -4.5,-21.11 -11.75,-28.36 z m -163.01,0 c -7.26,-7.26 -17.29,-11.74 -28.36,-11.74 -11.08,0 -21.11,4.49 -28.36,11.74 -7.26,7.26 -11.74,17.29 -11.74,28.36 0,11.08 4.49,21.11 11.74,28.36 7.26,7.26 17.28,11.74 28.36,11.74 11.07,0 21.11,-4.49 28.36,-11.74 7.25,-7.26 11.74,-17.28 11.74,-28.36 0,-11.07 -4.5,-21.11 -11.74,-28.36 z m 547.48,-230.82 0,-207.99 41.41,0 0,207.99 -41.41,0 z m -98.25,0 0,-207.99 41.4,0 0,207.99 -41.4,0 z m -98.26,0 0,-207.99 41.41,0 0,207.99 -41.41,0 z m -98.26,0 0,-207.99 41.41,0 0,207.99 -41.41,0 z m -98.26,0 0,-207.99 41.41,0 0,207.99 -41.41,0 z m -98.25,0 0,-207.99 41.4,0 0,207.99 -41.4,0 z m -98.26,0 0,-207.99 41.41,0 0,207.99 -41.41,0 z m -60.82,-318.08 0,378.14 761.98,0 0,-378.14 -761.98,0 z"
         class="fil6" />
    </g>
  </g>
</svg>
