<?xml version="1.0" encoding="UTF-8" standalone="no"?>
<!-- Created with Inkscape (http://www.inkscape.org/) -->

<svg
   xmlns:dc="http://purl.org/dc/elements/1.1/"
   xmlns:cc="http://creativecommons.org/ns#"
   xmlns:rdf="http://www.w3.org/1999/02/22-rdf-syntax-ns#"
   xmlns:svg="http://www.w3.org/2000/svg"
   xmlns="http://www.w3.org/2000/svg"
   xmlns:sodipodi="http://sodipodi.sourceforge.net/DTD/sodipodi-0.dtd"
   xmlns:inkscape="http://www.inkscape.org/namespaces/inkscape"
   width="90"
   height="90"
   viewBox="0 0 90.000001 90.000001"
   id="svg5919"
   version="1.1"
   inkscape:version="0.91 r13725"
   sodipodi:docname="icon-saneamento.svg">
  <defs
     id="defs5921" />
  <sodipodi:namedview
     id="base"
     pagecolor="#ffffff"
     bordercolor="#666666"
     borderopacity="1.0"
     inkscape:pageopacity="0.0"
     inkscape:pageshadow="2"
     inkscape:zoom="2.8"
     inkscape:cx="44.007008"
     inkscape:cy="73.809227"
     inkscape:document-units="px"
     inkscape:current-layer="layer1"
     showgrid="false"
     units="px"
     inkscape:window-width="1080"
     inkscape:window-height="1897"
     inkscape:window-x="-8"
     inkscape:window-y="-8"
     inkscape:window-maximized="1" />
  <metadata
     id="metadata5924">
    <rdf:RDF>
      <cc:Work
         rdf:about="">
        <dc:format>image/svg+xml</dc:format>
        <dc:type
           rdf:resource="http://purl.org/dc/dcmitype/StillImage" />
        <dc:title></dc:title>
      </cc:Work>
    </rdf:RDF>
  </metadata>
  <g
     inkscape:label="Camada 1"
     inkscape:groupmode="layer"
     id="layer1"
     transform="translate(0,-962.36216)">
    <rect
       style="clip-rule:evenodd;fill:#00afef;fill-rule:evenodd;image-rendering:optimizeQuality;shape-rendering:geometricPrecision;text-rendering:geometricPrecision"
       id="rect4503"
       height="90.000122"
       width="90.000122"
       y="962.36212"
       x="-6.1035156e-005"
       class="fil2" />
    <g
       transform="matrix(0.03545713,0,0,0.03545713,-155.04948,676.2803)"
       style="clip-rule:evenodd;fill-rule:evenodd;image-rendering:optimizeQuality;shape-rendering:geometricPrecision;text-rendering:geometricPrecision"
       id="g4583">
      <rect
         style="fill:#fefefe"
         y="0"
         x="0"
         id="rect4585"
         height="1011.05"
         width="134.12"
         transform="matrix(-0.302485,-0.186339,0.157894,-0.356761,5035.88,9402.49)"
         class="fil7" />
      <path
         style="fill:#fefefe"
         inkscape:connector-curvature="0"
         id="path4587"
         d="m 5411.53,8833.24 c 53.71,40.28 170.06,265.98 8.38,275.95 -149.26,9.21 -98.77,-171.5 -8.38,-275.95 z m 0,-70.19 c -38.42,25.06 -108.23,151.56 -126.05,203.24 -35.14,101.83 38.66,192.7 135.63,188.06 88.66,-4.25 154.32,-87.28 122.47,-183.7 -15.98,-48.36 -83.85,-185.57 -132.04,-207.61 z"
         class="fil7" />
      <path
         style="fill:#fefefe"
         inkscape:connector-curvature="0"
         id="path4589"
         d="m 5908.03,9282.7 c -40.43,-54.96 26.25,-165.91 56.86,-201.38 166.54,153.25 28.12,308.53 -56.86,201.38 z m 56.86,-262.67 c -100.07,66.63 -194.94,343.4 9.41,333.68 57.31,-2.73 83.73,-29.65 96.22,-67.45 15.91,-48.17 5.08,-115.17 -38.39,-184.66 -25.17,-40.23 -33.54,-47.03 -67.24,-81.56 z"
         class="fil7" />
      <path
         style="fill:#fefefe"
         inkscape:connector-curvature="0"
         id="path4591"
         d="m 5805.51,8724.21 c 60.97,41.1 129.89,215.16 14,231.16 -54.33,7.5 -92.43,-33.64 -82.3,-89.26 8.39,-46.06 46.16,-100.9 68.3,-141.9 z m -2.81,-55.1 c -16.52,12.18 -30.88,38.68 -48.48,66.89 -22.34,35.81 -47.13,75.76 -57.51,108.05 -65.85,204.75 288.47,209.04 223.14,-2.02 -10.9,-35.24 -42.26,-100.18 -77.15,-140 -12.56,-14.33 -19.27,-26.12 -40,-32.92 z"
         class="fil7" />
      <ellipse
         style="fill:#fefefe"
         id="ellipse4593"
         ry="21.280001"
         rx="20.1"
         cy="8954.3896"
         cx="5416.1802"
         class="fil7" />
      <ellipse
         style="fill:#fefefe"
         id="ellipse4595"
         ry="21.280001"
         rx="20.1"
         cy="9015.6396"
         cx="5465.6499"
         class="fil7" />
      <ellipse
         style="fill:#fefefe"
         id="ellipse4597"
         ry="21.280001"
         rx="20.1"
         cy="9059.5596"
         cx="5415.6699"
         class="fil7" />
      <ellipse
         style="fill:#fefefe"
         id="ellipse4599"
         ry="21.280001"
         rx="20.1"
         cy="9011.7305"
         cx="5363.4399"
         class="fil7" />
      <ellipse
         style="fill:#fefefe"
         id="ellipse4601"
         ry="21.280001"
         rx="20.1"
         cy="8884.0703"
         cx="5768.4102"
         class="fil7" />
      <ellipse
         style="fill:#fefefe"
         id="ellipse4603"
         ry="21.280001"
         rx="20.1"
         cy="8926.8203"
         cx="5803.3101"
         class="fil7" />
      <ellipse
         style="fill:#fefefe"
         id="ellipse4605"
         ry="21.280001"
         rx="20.1"
         cy="8882.8701"
         cx="5849.04"
         class="fil7" />
      <ellipse
         style="fill:#fefefe"
         id="ellipse4607"
         ry="21.280001"
         rx="20.1"
         cy="9175.7803"
         cx="5970.4399"
         class="fil7" />
      <ellipse
         style="fill:#fefefe"
         id="ellipse4609"
         ry="21.280001"
         rx="20.1"
         cy="9228.2002"
         cx="5931.0498"
         class="fil7" />
      <ellipse
         style="fill:#fefefe"
         id="ellipse4611"
         ry="21.280001"
         rx="20.1"
         cy="9278.04"
         cx="5981.29"
         class="fil7" />
      <ellipse
         style="fill:#fefefe"
         id="ellipse4613"
         ry="21.280001"
         rx="20.1"
         cy="9222.6201"
         cx="6009.2002"
         class="fil7" />
      <rect
         style="fill:#fefefe"
         id="rect4615"
         height="49.119999"
         width="327.95999"
         y="9021.0898"
         x="5574.6299"
         class="fil7" />
      <path
         style="fill:#fefefe"
         inkscape:connector-curvature="0"
         id="path4617"
         d="m 5467.53,9919.94 c -48.8,-66.31 31.67,-200.18 68.6,-242.98 200.94,184.89 33.93,372.27 -68.6,242.98 z m 68.6,-316.93 c -120.75,80.41 -235.21,414.35 11.35,402.63 69.16,-3.29 101.03,-35.78 116.11,-81.38 19.2,-58.13 6.13,-138.98 -46.33,-222.83 -30.37,-48.55 -40.46,-56.74 -81.13,-98.41 z"
         class="fil7" />
      <path
         style="fill:#fefefe"
         inkscape:connector-curvature="0"
         id="path4619"
         d="m 5867.94,9853.45 c -40.43,-54.96 26.24,-165.91 56.86,-201.37 166.53,153.24 28.11,308.52 -56.86,201.37 z m 56.86,-262.67 c -100.07,66.63 -194.94,343.4 9.4,333.68 57.32,-2.73 83.73,-29.64 96.22,-67.45 15.92,-48.17 5.08,-115.17 -38.38,-184.66 -25.17,-40.23 -33.54,-47.03 -67.24,-81.56 z"
         class="fil7" />
      <path
         style="fill:#fefefe"
         inkscape:connector-curvature="0"
         id="path4621"
         d="m 5156.06,9756.98 c -30.85,-41.93 20.03,-126.57 43.38,-153.64 127.04,116.91 21.45,235.38 -43.38,153.64 z m 43.38,-200.39 c -76.35,50.84 -148.72,261.98 7.18,254.57 43.73,-2.08 63.88,-22.61 73.41,-51.46 12.14,-36.76 3.88,-87.87 -29.29,-140.88 -19.2,-30.7 -25.58,-35.88 -51.3,-62.23 z"
         class="fil7" />
      <rect
         style="fill:#fefefe"
         y="0"
         x="0"
         id="rect4623"
         height="1011.05"
         width="134.12"
         transform="matrix(-0.341032,0.111427,-0.162297,-0.35299,6291.35,9374.5)"
         class="fil7" />
      <rect
         style="fill:#fefefe"
         id="rect4625"
         height="49.119999"
         width="103.65"
         y="9016.5898"
         x="5154.79"
         class="fil7" />
      <rect
         style="fill:#fefefe"
         id="rect4627"
         height="49.119999"
         width="113.49"
         y="9017.4902"
         x="6013.77"
         class="fil7" />
      <path
         style="fill:#ffffff;fill-rule:nonzero"
         inkscape:connector-curvature="0"
         id="path4629"
         d="m 5010.63,9367.26 1287.74,0 0,209.12 -1312.72,0 0,-209.12 24.98,0 z m 1237.77,49.97 -1212.79,0 0,109.19 1212.79,0 0,-109.19 z"
         class="fil6" />
    </g>
  </g>
</svg>
