<?xml version="1.0" encoding="UTF-8" standalone="no"?>
<!-- Created with Inkscape (http://www.inkscape.org/) -->

<svg
   xmlns:dc="http://purl.org/dc/elements/1.1/"
   xmlns:cc="http://creativecommons.org/ns#"
   xmlns:rdf="http://www.w3.org/1999/02/22-rdf-syntax-ns#"
   xmlns:svg="http://www.w3.org/2000/svg"
   xmlns="http://www.w3.org/2000/svg"
   xmlns:sodipodi="http://sodipodi.sourceforge.net/DTD/sodipodi-0.dtd"
   xmlns:inkscape="http://www.inkscape.org/namespaces/inkscape"
   width="90"
   height="90"
   viewBox="0 0 90.000001 90.000001"
   id="svg5919"
   version="1.1"
   inkscape:version="0.91 r13725"
   sodipodi:docname="icon-scada.svg">
  <defs
     id="defs5921" />
  <sodipodi:namedview
     id="base"
     pagecolor="#ffffff"
     bordercolor="#666666"
     borderopacity="1.0"
     inkscape:pageopacity="0.0"
     inkscape:pageshadow="2"
     inkscape:zoom="2.8"
     inkscape:cx="44.007008"
     inkscape:cy="73.809227"
     inkscape:document-units="px"
     inkscape:current-layer="layer1"
     showgrid="false"
     units="px"
     inkscape:window-width="1080"
     inkscape:window-height="1897"
     inkscape:window-x="-8"
     inkscape:window-y="-8"
     inkscape:window-maximized="1" />
  <metadata
     id="metadata5924">
    <rdf:RDF>
      <cc:Work
         rdf:about="">
        <dc:format>image/svg+xml</dc:format>
        <dc:type
           rdf:resource="http://purl.org/dc/dcmitype/StillImage" />
        <dc:title></dc:title>
      </cc:Work>
    </rdf:RDF>
  </metadata>
  <g
     inkscape:label="Camada 1"
     inkscape:groupmode="layer"
     id="layer1"
     transform="translate(0,-962.36216)">
    <rect
       style="clip-rule:evenodd;fill:#00afef;fill-rule:evenodd;image-rendering:optimizeQuality;shape-rendering:geometricPrecision;text-rendering:geometricPrecision"
       id="rect4501"
       height="90.000122"
       width="90.000122"
       y="962.36212"
       x="-6.1035156e-005"
       class="fil2" />
    <g
       transform="matrix(0.03545713,0,0,0.03545713,-52.140481,676.28032)"
       style="clip-rule:evenodd;fill-rule:evenodd;image-rendering:optimizeQuality;shape-rendering:geometricPrecision;text-rendering:geometricPrecision"
       id="g4519">
      <g
         id="g4521">
        <rect
           style="fill:#ffffff"
           id="rect4523"
           height="795.56"
           width="30.120001"
           y="8926.1299"
           x="2724.6001"
           class="fil0" />
        <path
           style="fill:#ffffff;fill-rule:nonzero"
           inkscape:connector-curvature="0"
           id="path4525"
           d="m 2739.66,8953.35 c -39.24,0 -74.77,-15.91 -100.49,-41.63 -25.72,-25.72 -41.63,-61.25 -41.63,-100.49 0,-39.24 15.91,-74.78 41.63,-100.49 25.72,-25.72 61.25,-41.63 100.49,-41.63 39.24,0 74.77,15.91 100.49,41.63 25.71,25.71 41.63,61.25 41.63,100.49 0,39.24 -15.91,74.77 -41.63,100.49 -25.72,25.72 -61.25,41.63 -100.49,41.63 z m -79.2,-62.93 c 20.27,20.27 48.27,32.81 79.2,32.81 30.93,0 58.93,-12.54 79.2,-32.81 20.27,-20.27 32.81,-48.27 32.81,-79.2 0,-30.93 -12.54,-58.93 -32.81,-79.2 -20.27,-20.27 -48.27,-32.81 -79.2,-32.81 -30.93,0 -58.93,12.54 -79.2,32.81 -20.27,20.27 -32.81,48.27 -32.81,79.2 0,30.93 12.54,58.93 32.81,79.2 z"
           class="fil6" />
        <path
           style="fill:#ffffff;fill-rule:nonzero"
           inkscape:connector-curvature="0"
           id="path4527"
           d="m 2739.66,10005.94 c -39.24,0 -74.77,-15.91 -100.49,-41.63 -25.72,-25.72 -41.63,-61.25 -41.63,-100.49 0,-39.24 15.91,-74.78 41.63,-100.49 25.72,-25.72 61.25,-41.63 100.49,-41.63 39.24,0 74.77,15.91 100.49,41.63 25.71,25.71 41.63,61.25 41.63,100.49 0,39.24 -15.91,74.77 -41.63,100.49 -25.72,25.72 -61.25,41.63 -100.49,41.63 z m -79.2,-62.93 c 20.27,20.27 48.27,32.81 79.2,32.81 30.93,0 58.93,-12.54 79.2,-32.81 20.27,-20.27 32.81,-48.27 32.81,-79.2 0,-30.93 -12.54,-58.94 -32.81,-79.2 -20.27,-20.27 -48.27,-32.81 -79.2,-32.81 -30.93,0 -58.93,12.54 -79.2,32.81 -20.27,20.26 -32.81,48.27 -32.81,79.2 0,30.93 12.54,58.93 32.81,79.2 z"
           class="fil6" />
      </g>
      <g
         id="g4529">
        <rect
           style="fill:#ffffff"
           y="0"
           x="0"
           id="rect4531"
           height="2822.79"
           width="103.45"
           transform="matrix(-0.201262,0.210385,0.203652,0.194822,2452.81,9042.26)"
           class="fil0" />
        <path
           style="fill:#ffffff;fill-rule:nonzero"
           inkscape:connector-curvature="0"
           id="path4533"
           d="m 2462.06,9071.96 c 27.13,-28.36 40.19,-65.04 39.39,-101.4 -0.81,-36.36 -15.49,-72.42 -43.84,-99.54 -28.36,-27.13 -65.04,-40.19 -101.39,-39.38 -36.37,0.8 -72.42,15.48 -99.55,43.83 -27.12,28.36 -40.19,65.04 -39.38,101.4 0.8,36.36 15.48,72.42 43.84,99.54 28.35,27.13 65.03,40.19 101.39,39.38 36.37,-0.8 72.42,-15.48 99.54,-43.83 z m 9.28,-100.73 c 0.63,28.65 -9.66,57.56 -31.05,79.91 -21.38,22.34 -49.8,33.92 -78.45,34.56 -28.65,0.63 -57.55,-9.66 -79.91,-31.05 -22.34,-21.38 -33.92,-49.8 -34.55,-78.45 -0.64,-28.65 9.66,-57.56 31.04,-79.91 21.38,-22.34 49.8,-33.92 78.45,-34.56 28.65,-0.63 57.56,9.66 79.91,31.05 22.35,21.38 33.92,49.8 34.56,78.45 z"
           class="fil6" />
        <path
           style="fill:#ffffff;fill-rule:nonzero"
           inkscape:connector-curvature="0"
           id="path4535"
           d="m 3222.66,9799.58 c 27.12,-28.36 40.19,-65.04 39.38,-101.4 -0.81,-36.36 -15.49,-72.42 -43.84,-99.54 -28.35,-27.13 -65.04,-40.19 -101.39,-39.38 -36.37,0.8 -72.42,15.48 -99.55,43.83 -27.12,28.36 -40.19,65.04 -39.38,101.4 0.8,36.36 15.48,72.42 43.84,99.54 28.35,27.13 65.03,40.19 101.39,39.38 36.37,-0.8 72.42,-15.48 99.55,-43.83 z m 9.27,-100.73 c 0.64,28.65 -9.66,57.56 -31.04,79.91 -21.39,22.34 -49.81,33.92 -78.46,34.56 -28.65,0.63 -57.55,-9.66 -79.91,-31.05 -22.34,-21.38 -33.92,-49.8 -34.55,-78.45 -0.64,-28.65 9.66,-57.56 31.04,-79.91 21.39,-22.34 49.81,-33.92 78.46,-34.56 28.65,-0.63 57.55,9.66 79.9,31.05 22.35,21.38 33.93,49.8 34.56,78.45 z"
           class="fil6" />
      </g>
      <g
         id="g4537">
        <rect
           style="fill:#ffffff"
           y="0"
           x="0"
           id="rect4539"
           height="2822.79"
           width="103.45"
           transform="matrix(0,-0.29115,0.281833,0,2328.27,9352.58)"
           class="fil0" />
        <path
           style="fill:#ffffff;fill-rule:nonzero"
           inkscape:connector-curvature="0"
           id="path4541"
           d="m 2355.49,9337.52 c 0,39.24 -15.91,74.77 -41.63,100.49 -25.72,25.72 -61.25,41.63 -100.49,41.63 -39.24,0 -74.78,-15.91 -100.49,-41.63 -25.72,-25.72 -41.63,-61.25 -41.63,-100.49 0,-39.24 15.91,-74.77 41.63,-100.49 25.71,-25.71 61.25,-41.63 100.49,-41.63 39.24,0 74.77,15.91 100.49,41.63 25.72,25.72 41.63,61.25 41.63,100.49 z m -62.93,79.2 c 20.27,-20.27 32.81,-48.27 32.81,-79.2 0,-30.93 -12.54,-58.93 -32.81,-79.2 -20.27,-20.27 -48.27,-32.81 -79.2,-32.81 -30.93,0 -58.94,12.54 -79.2,32.81 -20.27,20.27 -32.81,48.27 -32.81,79.2 0,30.93 12.54,58.93 32.81,79.2 20.26,20.27 48.27,32.81 79.2,32.81 30.93,0 58.93,-12.54 79.2,-32.81 z"
           class="fil6" />
        <path
           style="fill:#ffffff;fill-rule:nonzero"
           inkscape:connector-curvature="0"
           id="path4543"
           d="m 3408.07,9337.52 c 0,39.24 -15.91,74.77 -41.62,100.49 -25.72,25.72 -61.26,41.63 -100.49,41.63 -39.24,0 -74.78,-15.91 -100.49,-41.63 -25.72,-25.72 -41.63,-61.25 -41.63,-100.49 0,-39.24 15.91,-74.77 41.63,-100.49 25.71,-25.71 61.25,-41.63 100.49,-41.63 39.23,0 74.77,15.91 100.49,41.63 25.71,25.72 41.62,61.25 41.62,100.49 z m -62.92,79.2 c 20.27,-20.27 32.8,-48.27 32.8,-79.2 0,-30.93 -12.53,-58.93 -32.8,-79.2 -20.27,-20.27 -48.28,-32.81 -79.2,-32.81 -30.94,0 -58.94,12.54 -79.21,32.81 -20.26,20.27 -32.8,48.27 -32.8,79.2 0,30.93 12.54,58.93 32.8,79.2 20.27,20.27 48.27,32.81 79.21,32.81 30.92,0 58.93,-12.54 79.2,-32.81 z"
           class="fil6" />
      </g>
      <g
         id="g4545">
        <rect
           style="fill:#ffffff"
           y="0"
           x="0"
           id="rect4547"
           height="2822.79"
           width="103.45"
           transform="matrix(0.201262,0.210385,-0.203652,0.194822,3026.52,9042.26)"
           class="fil0" />
        <path
           style="fill:#ffffff;fill-rule:nonzero"
           inkscape:connector-curvature="0"
           id="path4549"
           d="m 3017.27,9071.96 c -27.13,-28.36 -40.19,-65.04 -39.39,-101.4 0.81,-36.36 15.49,-72.42 43.84,-99.54 28.36,-27.13 65.04,-40.19 101.39,-39.38 36.37,0.8 72.42,15.48 99.55,43.83 27.12,28.36 40.19,65.04 39.38,101.4 -0.8,36.36 -15.48,72.42 -43.84,99.54 -28.35,27.13 -65.03,40.19 -101.39,39.38 -36.37,-0.8 -72.42,-15.48 -99.54,-43.83 z m -9.28,-100.73 c -0.63,28.65 9.66,57.56 31.04,79.91 21.39,22.34 49.81,33.92 78.46,34.56 28.65,0.63 57.55,-9.66 79.91,-31.05 22.34,-21.38 33.92,-49.8 34.55,-78.45 0.64,-28.65 -9.66,-57.56 -31.04,-79.91 -21.38,-22.34 -49.8,-33.92 -78.46,-34.56 -28.64,-0.63 -57.55,9.66 -79.9,31.05 -22.35,21.38 -33.92,49.8 -34.56,78.45 z"
           class="fil6" />
        <path
           style="fill:#ffffff;fill-rule:nonzero"
           inkscape:connector-curvature="0"
           id="path4551"
           d="m 2256.67,9799.58 c -27.12,-28.36 -40.19,-65.04 -39.38,-101.4 0.81,-36.36 15.49,-72.42 43.84,-99.54 28.35,-27.13 65.04,-40.19 101.39,-39.38 36.37,0.8 72.42,15.48 99.55,43.83 27.12,28.36 40.19,65.04 39.38,101.4 -0.8,36.36 -15.49,72.42 -43.84,99.54 -28.35,27.13 -65.03,40.19 -101.39,39.38 -36.37,-0.8 -72.42,-15.48 -99.55,-43.83 z m -9.27,-100.73 c -0.64,28.65 9.66,57.56 31.04,79.91 21.39,22.34 49.81,33.92 78.46,34.56 28.65,0.63 57.55,-9.66 79.91,-31.05 22.34,-21.38 33.92,-49.8 34.55,-78.45 0.64,-28.65 -9.66,-57.56 -31.04,-79.91 -21.39,-22.34 -49.81,-33.92 -78.46,-34.56 -28.65,-0.63 -57.55,9.66 -79.91,31.05 -22.34,21.38 -33.92,49.8 -34.55,78.45 z"
           class="fil6" />
      </g>
    </g>
  </g>
</svg>
