<?xml version="1.0" encoding="UTF-8" standalone="no"?>
<!-- Created with Inkscape (http://www.inkscape.org/) -->

<svg
   xmlns:dc="http://purl.org/dc/elements/1.1/"
   xmlns:cc="http://creativecommons.org/ns#"
   xmlns:rdf="http://www.w3.org/1999/02/22-rdf-syntax-ns#"
   xmlns:svg="http://www.w3.org/2000/svg"
   xmlns="http://www.w3.org/2000/svg"
   xmlns:sodipodi="http://sodipodi.sourceforge.net/DTD/sodipodi-0.dtd"
   xmlns:inkscape="http://www.inkscape.org/namespaces/inkscape"
   width="90"
   height="90"
   viewBox="0 0 90.000001 90.000001"
   id="svg5919"
   version="1.1"
   inkscape:version="0.91 r13725"
   sodipodi:docname="icon-automacao.svg">
  <defs
     id="defs5921" />
  <sodipodi:namedview
     id="base"
     pagecolor="#ffffff"
     bordercolor="#666666"
     borderopacity="1.0"
     inkscape:pageopacity="0.0"
     inkscape:pageshadow="2"
     inkscape:zoom="2.8"
     inkscape:cx="44.007008"
     inkscape:cy="73.809227"
     inkscape:document-units="px"
     inkscape:current-layer="layer1"
     showgrid="false"
     units="px"
     inkscape:window-width="1080"
     inkscape:window-height="1897"
     inkscape:window-x="-8"
     inkscape:window-y="-8"
     inkscape:window-maximized="1" />
  <metadata
     id="metadata5924">
    <rdf:RDF>
      <cc:Work
         rdf:about="">
        <dc:format>image/svg+xml</dc:format>
        <dc:type
           rdf:resource="http://purl.org/dc/dcmitype/StillImage" />
        <dc:title></dc:title>
      </cc:Work>
    </rdf:RDF>
  </metadata>
  <g
     inkscape:label="Camada 1"
     inkscape:groupmode="layer"
     id="layer1"
     transform="translate(0,-962.36216)">
    <g
       id="g6485"
       transform="translate(-327.04724,481.18107)">
      <rect
         class="fil2"
         x="327.04718"
         y="481.18103"
         width="90.000122"
         height="90.000122"
         id="rect4505"
         style="clip-rule:evenodd;fill:#00afef;fill-rule:evenodd;image-rendering:optimizeQuality;shape-rendering:geometricPrecision;text-rendering:geometricPrecision" />
      <path
         class="fil7"
         d="m 379.92354,504.07838 c 1.43141,-0.5276 1.99446,1.58281 0.78254,2.06502 -1.34453,0.53505 -2.27741,-1.51366 -0.78254,-2.06502 z m -8.98129,22.53655 c -0.1358,-1.52288 2.0824,-1.67393 2.21146,-0.24643 0.13403,1.48211 -2.08984,1.61047 -2.21146,0.24643 z m 1.85086,-2.60929 10e-4,-4.33711 c 3.43048,0.4347 6.34718,3.33048 6.10395,7.21233 -0.22232,3.55103 -3.16384,6.46986 -6.85812,6.46454 -3.66485,-0.005 -6.66275,-2.93797 -6.84323,-6.48227 -0.10779,-2.1214 0.70418,-3.76555 1.73315,-4.91755 0.71588,-0.80097 2.53625,-2.29904 4.36335,-2.24904 l 0.004,4.25166 c -0.97365,0.54214 -2.10473,1.22859 -1.83561,2.9316 0.45846,2.90181 4.66828,2.95038 5.16823,0.0301 0.23969,-1.39737 -0.77226,-2.69723 -1.83668,-2.90465 z m -0.99989,-16.60635 c 1.37184,-0.39109 1.97957,1.82995 0.53115,2.15296 -1.42183,0.31699 -2.02141,-1.72818 -0.53115,-2.15296 z m -0.50314,3.63436 0.007,7.09745 c -2.09835,0.58292 -3.44253,0.58363 -5.38345,2.71106 -1.50445,1.64911 -2.28699,3.61343 -2.21075,5.95254 0.14289,4.40448 3.79958,7.97963 8.2491,8.04699 6.79288,0.10212 11.35975,-8.02004 6.31101,-13.91905 -0.98748,-1.15377 -3.06881,-2.61957 -5.46784,-2.7458 l -0.002,-7.0549 c 0.094,-0.36415 0.81977,-0.25423 1.35021,-1.06584 1.32148,-2.02248 -0.10921,-4.14707 -2.01645,-4.19529 -1.4041,-0.0355 -2.44725,0.91976 -2.66035,2.17955 -0.13403,0.79176 0.0702,1.37006 0.45279,1.94305 0.53363,0.79849 0.89884,0.66021 1.37042,1.05059 z m 6.15784,2.10013 c 1.39347,-0.39464 1.92923,1.75548 0.58824,2.12955 -1.44382,0.40279 -2.08559,-1.70549 -0.58824,-2.12955 z m -11.34096,0.0121 c 1.43176,-0.45563 1.95475,1.76931 0.58008,2.12565 -1.35375,0.35103 -2.08843,-1.64521 -0.58008,-2.12565 z m 14.19314,1.67322 c -0.0308,-1.0428 0.0631,-2.39797 -1.67216,-3.07307 -2.75467,-1.07187 -4.88954,2.7068 -2.50469,4.5378 1.60337,1.23143 2.97698,0.0418 3.39963,-0.14892 0.79494,0.39287 2.06715,1.76931 2.64722,2.55114 2.63695,3.55316 3.42729,7.73746 1.93206,12.06961 -3.29113,9.53336 -16.22199,11.61647 -22.33622,3.31808 -2.54653,-3.4553 -3.24751,-8.0197 -1.68031,-12.1079 0.63929,-1.66684 1.83101,-3.53366 3.06669,-4.67822 0.37443,-0.34748 0.9389,-0.85983 1.40516,-1.14987 0.33756,0.15388 0.70383,0.62653 1.68315,0.67368 3.02343,0.14609 3.734,-4.09068 1.10698,-5.04945 -0.59497,-0.21699 -1.33957,-0.24997 -1.95156,0.017 -1.64167,0.71588 -1.56366,1.92604 -1.60125,3.0401 -1.98418,1.44133 -3.96694,3.61663 -5.08632,6.56453 -1.20732,3.17944 -1.26157,6.55638 -0.13864,9.81063 1.73385,5.02428 6.69572,9.56421 13.47052,9.56811 10.31058,0.006 16.86483,-10.41234 13.31699,-19.45284 -0.71659,-1.8264 -2.11821,-3.99815 -3.4982,-5.21681 l -1.55941,-1.27398 z m -16.83966,-10.74068 c 1.32858,-0.5698 2.08701,1.53813 0.78289,2.06431 -0.97152,0.39181 -1.91149,-0.62794 -1.40232,-1.5789 0.16416,-0.306 0.25422,-0.32834 0.61979,-0.48541 z m 19.40923,1.65868 c -0.0238,-0.95734 0.12198,-1.1832 -0.36237,-1.99836 -1.05449,-1.77534 -3.61769,-1.50055 -4.49348,0.0663 -1.36581,2.443 1.52147,5.28489 4.06941,3.17838 l 1.94589,1.15377 -1.42076,4.39988 2.67701,2.50469 c 0.24536,0.26876 0.50065,0.64213 0.77651,0.88501 l 4.38463,-1.39878 1.12505,1.96397 c -0.12339,0.27763 -0.9272,0.98819 -1.22114,1.22894 -0.5815,0.47583 -1.60054,1.52537 -2.14693,1.8186 0.0943,0.64354 0.53682,1.63244 0.7329,2.33237 0.20281,0.72226 0.31309,1.82675 0.53611,2.47739 l 4.48214,0.94103 -10e-4,2.38697 -4.47895,0.96337 c -0.22976,0.65986 -0.33294,1.70904 -0.54497,2.45683 -0.19573,0.68928 -0.63681,1.70832 -0.72475,2.32811 0.41521,0.22055 0.9616,0.76127 1.35411,1.11584 0.41414,0.37407 1.86008,1.58493 2.00865,1.93206 l -1.09456,2.01183 -4.41903,-1.44416 c -0.2794,0.25422 -0.54994,0.6595 -0.81197,0.92968 l -1.27113,1.28071 c -0.45917,0.39429 -0.84246,0.8843 -1.38815,1.18746 l 1.42289,4.39952 c -0.26273,0.22516 -1.79909,1.10981 -2.14409,1.1864 -0.20742,-0.37088 -1.79697,-2.16608 -2.20508,-2.55043 -0.3067,-0.28898 -0.36201,-0.51307 -0.74992,-0.82154 -0.56412,0.0844 -1.59557,0.53788 -2.25684,0.72509 -0.78467,0.22232 -1.6562,0.31841 -2.46073,0.52902 -0.23118,0.89601 -0.6868,3.9478 -1.00414,4.48391 l -2.28911,-0.0199 c -0.32054,-0.60312 -0.72617,-3.51522 -0.99245,-4.47575 -0.81835,-0.17019 -1.69769,-0.30174 -2.46994,-0.52406 -0.73928,-0.21274 -1.6172,-0.60348 -2.29231,-0.74211 -0.1124,0.15601 -0.23224,0.32762 -0.37017,0.48789 l -2.68127,2.9089 -2.01609,-1.19278 1.41793,-4.42186 c -0.63787,-0.34393 -3.02839,-2.70892 -3.33971,-3.34963 -1.19951,0.0794 -3.20071,1.15909 -4.50766,1.37502 l -1.12399,-2.04942 c 0.4691,-0.58398 1.86894,-1.60053 2.47951,-2.25011 1.19916,-1.27504 1.05273,0.0706 0.18084,-2.98549 -0.19076,-0.6673 -0.34961,-1.98666 -0.56661,-2.54015 l -4.46902,-0.94918 -3.5e-4,-2.35861 c 0.7017,-0.18757 4.10664,-0.72936 4.42328,-1.01124 0.24855,-0.24004 0.25245,-0.9233 0.32798,-1.2761 1.09527,-5.092 1.90333,-2.17991 -1.59806,-5.7398 -0.25245,-0.25671 -0.54356,-0.42442 -0.82899,-0.6783 l 1.14456,-2.08807 c 1.31014,0.22941 3.38367,1.30837 4.53851,1.3924 0.29962,-0.62901 2.7107,-3.00073 3.36737,-3.35495 l -1.44204,-4.44384 1.85157,-1.09208 c 0.50136,0.27231 0.81445,0.62653 1.65797,0.7017 2.02567,0.18118 3.63117,-1.94022 2.48909,-3.9166 -1.29879,-2.24763 -5.08207,-1.61436 -4.82039,1.89483 l -2.98904,1.74591 1.47644,4.5651 c -0.67972,0.74425 -1.6094,1.33745 -2.1402,2.21288 l -4.57716,-1.48884 c -0.21345,0.19324 -2.33379,3.88433 -2.42243,4.24989 0.52406,0.29181 1.72818,1.44665 2.29266,1.93702 l 1.24632,1.18782 -0.63469,2.24727 c -0.0188,0.0883 -0.062,0.36025 -0.0869,0.43258 -0.12835,0.37442 0.0131,0.12906 -0.18225,0.33223 l -4.58673,0.98181 0.002,4.79806 4.70658,0.98712 c 0.12906,0.73964 0.3138,1.44878 0.51058,2.13665 0.3411,1.19278 0.38932,0.8375 -0.49002,1.55728 l -1.3736,1.26475 c -0.47619,0.37762 -0.87225,0.85807 -1.40517,1.15023 0.0897,0.36592 2.21288,4.05914 2.42846,4.26479 l 4.57964,-1.48353 c 0.21558,0.3606 0.73396,0.83253 1.04634,1.14172 l 1.10626,1.05875 -1.45835,4.57184 c 1.26369,0.88714 2.75857,1.54381 4.05275,2.36251 0.45385,-0.18367 0.57299,-0.56554 0.88005,-0.86834 0.85735,-0.84459 1.54274,-1.86221 2.37811,-2.63553 l 2.95251,0.7992 0.16204,0.30671 c 0.0184,0.0589 0.0447,0.21841 0.0582,0.28791 0.21239,1.0974 0.53682,3.22057 0.87544,4.08537 l 4.75374,-0.0199 c 0.31521,-0.62724 0.70311,-3.13512 0.89919,-4.12473 0.0589,-0.29571 0.0238,-0.33649 0.1982,-0.53469 l 2.86423,-0.81162 c 0.24005,0.0269 3.02414,3.28971 3.21242,3.54607 0.48292,-0.16098 3.8322,-2.10474 4.22968,-2.42456 l -1.46828,-4.54631 2.21571,-2.19125 4.55554,1.46863 2.35896,-4.11941 c -0.53647,-0.69106 -1.7881,-1.5945 -2.47136,-2.24727 -1.07506,-1.02648 -1.19597,-0.52122 -0.77084,-1.91823 0.10956,-0.35812 0.18899,-0.67936 0.27479,-1.03712 0.0589,-0.24324 0.1046,-0.93394 0.3255,-1.06372 l 4.60198,-0.97294 -0.007,-4.81047 -4.69772,-1.00627 c -0.77828,-3.84001 -1.19277,-2.53412 0.0184,-3.70527 l 2.07176,-1.88739 c 0.35067,-0.27053 0.36698,-0.26805 0.66482,-0.6361 l -2.37279,-4.146 -4.55446,1.49133 c -0.10496,-0.0766 -0.44393,-0.4074 -0.57476,-0.54781 l -1.66011,-1.64096 1.48849,-4.53922 c -0.60422,-0.49462 -2.19021,-1.36012 -2.94971,-1.71824 z"
         id="path4631"
         inkscape:connector-curvature="0"
         style="clip-rule:evenodd;fill:#fefefe;fill-rule:evenodd;image-rendering:optimizeQuality;shape-rendering:geometricPrecision;text-rendering:geometricPrecision" />
    </g>
  </g>
</svg>
