<?xml version="1.0" encoding="UTF-8" standalone="no"?>
<!-- Created with Inkscape (http://www.inkscape.org/) -->

<svg
   xmlns:dc="http://purl.org/dc/elements/1.1/"
   xmlns:cc="http://creativecommons.org/ns#"
   xmlns:rdf="http://www.w3.org/1999/02/22-rdf-syntax-ns#"
   xmlns:svg="http://www.w3.org/2000/svg"
   xmlns="http://www.w3.org/2000/svg"
   xmlns:sodipodi="http://sodipodi.sourceforge.net/DTD/sodipodi-0.dtd"
   xmlns:inkscape="http://www.inkscape.org/namespaces/inkscape"
   width="9.0312271mm"
   height="8.9786015mm"
   viewBox="0 0 32.000411 31.813942"
   id="svg9543"
   version="1.1"
   inkscape:version="0.91 r13725"
   sodipodi:docname="icon-facebook.svg">
  <defs
     id="defs9545" />
  <sodipodi:namedview
     id="base"
     pagecolor="#ffffff"
     bordercolor="#666666"
     borderopacity="1.0"
     inkscape:pageopacity="0.0"
     inkscape:pageshadow="2"
     inkscape:zoom="11.2"
     inkscape:cx="18.452976"
     inkscape:cy="13.66247"
     inkscape:document-units="px"
     inkscape:current-layer="layer1"
     showgrid="false"
     fit-margin-top="0"
     fit-margin-left="0"
     fit-margin-right="0"
     fit-margin-bottom="0"
     inkscape:window-width="1278"
     inkscape:window-height="1048"
     inkscape:window-x="1073"
     inkscape:window-y="0"
     inkscape:window-maximized="0" />
  <metadata
     id="metadata9548">
    <rdf:RDF>
      <cc:Work
         rdf:about="">
        <dc:format>image/svg+xml</dc:format>
        <dc:type
           rdf:resource="http://purl.org/dc/dcmitype/StillImage" />
        <dc:title></dc:title>
      </cc:Work>
    </rdf:RDF>
  </metadata>
  <g
     inkscape:label="Camada 1"
     inkscape:groupmode="layer"
     id="layer1"
     transform="translate(906.01277,31.524417)">
    <path
       style="clip-rule:evenodd;fill:#fefefe;fill-rule:evenodd;image-rendering:optimizeQuality;shape-rendering:geometricPrecision;text-rendering:geometricPrecision"
       inkscape:connector-curvature="0"
       id="path8392"
       d="m -890.01108,-31.524417 c 8.8353,0 15.99872,7.161615 15.99872,15.998714 0,8.0086277 -5.88642,14.64386792 -13.56885,15.81522872 l 0.005,-11.15202172 3.73092,-0.02195 0.70431,-4.605749 -4.4334,0 c 0,-1.391918 -0.25195,-3.608607 0.4579,-4.605744 0.78769,-1.110229 2.50582,-0.897084 4.16834,-0.897084 l 0,-3.944078 c -2.60033,-0.207573 -5.66777,-0.967484 -7.96972,1.289982 -2.10547,2.066562 -1.631,5.330434 -1.69028,8.156898 l -4.03493,0 0.0314,4.62799 4.03306,0 0.005,11.12978062 c -7.61756,-1.225107 -13.43916,-7.82884282 -13.43916,-15.79298662 0,-8.837099 7.16159,-15.998715 15.99872,-15.998715 z"
       class="fil7" />
  </g>
</svg>
