<?xml version="1.0" encoding="UTF-8" standalone="no"?>
<!-- Created with Inkscape (http://www.inkscape.org/) -->

<svg
   xmlns:dc="http://purl.org/dc/elements/1.1/"
   xmlns:cc="http://creativecommons.org/ns#"
   xmlns:rdf="http://www.w3.org/1999/02/22-rdf-syntax-ns#"
   xmlns:svg="http://www.w3.org/2000/svg"
   xmlns="http://www.w3.org/2000/svg"
   xmlns:sodipodi="http://sodipodi.sourceforge.net/DTD/sodipodi-0.dtd"
   xmlns:inkscape="http://www.inkscape.org/namespaces/inkscape"
   width="90"
   height="90"
   viewBox="0 0 90.000001 90.000001"
   id="svg5919"
   version="1.1"
   inkscape:version="0.91 r13725"
   sodipodi:docname="icon-jornada.svg">
  <defs
     id="defs5921" />
  <sodipodi:namedview
     id="base"
     pagecolor="#ffffff"
     bordercolor="#666666"
     borderopacity="1.0"
     inkscape:pageopacity="0.0"
     inkscape:pageshadow="2"
     inkscape:zoom="2.8"
     inkscape:cx="47.935579"
     inkscape:cy="70.237798"
     inkscape:document-units="px"
     inkscape:current-layer="layer1"
     showgrid="false"
     units="px"
     inkscape:window-width="1080"
     inkscape:window-height="1897"
     inkscape:window-x="-8"
     inkscape:window-y="-8"
     inkscape:window-maximized="1" />
  <metadata
     id="metadata5924">
    <rdf:RDF>
      <cc:Work
         rdf:about="">
        <dc:format>image/svg+xml</dc:format>
        <dc:type
           rdf:resource="http://purl.org/dc/dcmitype/StillImage" />
        <dc:title></dc:title>
      </cc:Work>
    </rdf:RDF>
  </metadata>
  <g
     inkscape:label="Camada 1"
     inkscape:groupmode="layer"
     id="layer1"
     transform="translate(0,-962.36216)">
    <rect
       class="fil2"
       x="0.0054359436"
       y="962.36212"
       width="89.989128"
       height="90.000122"
       id="rect4954"
       style="clip-rule:evenodd;fill:#00afef;fill-rule:evenodd;image-rendering:optimizeQuality;shape-rendering:geometricPrecision;text-rendering:geometricPrecision" />
    <path
       class="fil0"
       d="m 45.140139,1023.9387 c 0.28259,0.4538 0.16629,3.4297 0.18686,4.4537 0.004,0.1915 0.0415,0.6879 0.0287,0.8368 -0.0656,0.7673 0.0511,0.3862 -0.35174,0.4911 -0.25671,-0.5092 -0.13332,-3.406 -0.1592,-4.4701 -0.0404,-1.6541 -0.0695,-1.2105 0.29536,-1.3115 z m -0.60135,-6.756 0.90132,-0.01 0.0241,-3.9532 -0.91551,0.01 -0.01,3.9525 z m -1.29809,-29.76593 c -0.41272,-1.2846 3.19504,-1.5382 3.49785,-0.356 0.33365,1.3027 -3.14789,1.4463 -3.49785,0.356 z m 1.14243,-2.0062 c -3.47338,0.5471 -2.39832,4.2173 1.28319,3.628 3.4514,-0.5528 2.21678,-4.179 -1.28319,-3.628 z m 7.19673,6.6659 c 0.256,0.4103 0.34784,0.7925 0.11559,1.3442 -0.15211,0.361 -0.14821,0.3312 -0.44215,0.5138 l -0.55561,0.3113 c -0.43435,0.2897 -0.11666,2.3012 -1.6367,4.0591 -0.70631,0.817 -2.37776,1.646 -4.0563,1.6541 -1.62996,0.01 -3.28581,-0.819 -3.99637,-1.5803 -0.86906,-0.9311 -1.2683,-2.4575 -1.58458,-4.1329 -0.65808,-0.396 -1.11725,-0.2844 -1.2254,-1.2612 -0.17941,-1.6215 0.84955,-0.3056 0.85133,-0.3042 1.32964,1.0399 4.38179,-0.3776 8.75259,0.2489 3.31382,0.4744 2.44441,0 3.7776,-0.8528 z m -12.15222,-0.4254 c 1.47998,-0.9499 9.67058,-0.9694 11.13496,0 -0.99918,1.1381 -2.17636,0.1776 -5.55897,0.1804 -3.20533,0 -4.66864,0.9304 -5.57564,-0.1804 z m -0.34996,-0.968 c -0.0918,-1.8587 -0.0709,-4.419 1.07612,-5.5203 2.48661,-2.3884 7.38537,-2.3654 9.68618,0.013 1.11725,1.1548 1.15448,3.5865 1.07648,5.5075 -6.12309,-1.1389 -6.1511,-0.7846 -11.83878,-3e-4 z m 4.35839,-8.0676 c -2.53412,0.4064 -4.30379,1.5839 -4.96506,3.5897 -0.26912,0.8162 -0.2826,2.9812 -0.32054,3.9489 -0.0479,1.2108 0.0589,0.8077 -0.50881,1.5104 -1.38211,1.7108 0.82757,3.0362 0.9967,3.4731 0.28224,0.729 0.0475,1.843 1.6204,3.7166 2.60716,3.10463 9.09546,2.82453 10.73783,-2.1661 0.13155,-0.3989 0.28472,-1.3874 0.41379,-1.6431 0.23153,-0.4588 0.64425,-0.3726 1.06229,-1.1162 0.93394,-1.6622 -0.51129,-2.5249 -0.59497,-2.9809 -0.38187,-2.0838 0.50598,-5.0448 -1.6913,-6.801 -1.67677,-1.3399 -4.05772,-1.9636 -6.75033,-1.5317 z m 1.0786,36.88043 c 2.18629,-0.734 3.25036,2.6997 1.12329,3.3996 -2.36535,0.7787 -3.49572,-2.6036 -1.12329,-3.3996 z m -6.65565,-0.801 c 0.36911,-0.1227 1.77073,0.8166 2.15756,1.0237 0.7719,0.4127 1.5165,0.8417 2.17778,1.2445 0.48364,1.6215 0.28224,2.0083 1.70762,2.7398 l 0.0833,5.9759 c -5.04059,-0.7584 -5.74228,-3.7418 -6.9035,-5.0867 l -0.73822,0.2706 c 0.29039,1.5136 2.27564,3.4308 3.19681,4.0754 3.26135,2.2817 7.64669,2.3143 10.92151,-0.01 0.94316,-0.6683 2.88763,-2.5362 3.21171,-4.1059 l -0.74319,-0.2454 c -0.69318,0.7939 -0.73963,1.7814 -2.5951,3.2724 -0.95628,0.768 -2.51356,1.7352 -4.05701,1.7349 l -0.0975,-5.7033 c 0.13403,-0.6003 1.56366,-0.6031 1.55692,-3.0195 1.3761,-0.5989 2.9433,-1.8892 4.31478,-2.5136 0.39393,1.2403 -0.18544,0.862 -0.004,1.7899 0.10673,0.5457 0.24572,0.2688 0.2209,0.8148 -0.0255,0.5648 -0.21062,0.423 0.0528,1.0694 0.18969,0.4652 0.23012,0.1032 0.26203,0.7024 0.0241,0.4464 -0.0918,0.5187 0.14892,0.9364 0.3528,0.6131 1.04421,0.6198 1.82746,0.6641 -0.0844,1.3782 -1.98667,3.851 -3.33297,4.8279 -5.0179,3.6418 -11.19524,2.4561 -14.41191,-2.0016 -0.42087,-0.5833 -1.32609,-1.953 -1.37148,-2.8266 2.68588,-0.1479 1.58742,-1.0286 2.13487,-2.1271 0.50988,-1.0233 -0.0479,-0.8772 0.27657,-1.7675 0.39464,-1.0822 -0.29536,-1.0127 0.003,-1.7392 z m 9.48407,1.0928 c 0.0801,-0.3411 -0.0624,-0.096 0.18509,-0.3443 3.5e-4,-7e-4 4.53354,-2.8288 4.72324,-2.6685 0.23012,0.4152 0.30564,0.1979 -0.28614,0.5439 l -3.35637,1.9803 c -1.25376,0.7446 -0.82119,0.7325 -1.26582,0.4886 z m 7.97573,-1.9739 c -0.0695,-1.1669 -0.24359,-0.9456 -0.55207,-1.8551 3.22802,1.0141 2.48732,5.694 1.62961,7.4173 -0.66376,0.093 -2.69332,0.3205 -2.90784,-0.4468 0.36095,-0.3787 1.31475,-0.2099 2.03666,-0.239 l -0.004,-0.9038 c -0.69177,-0.025 -2.08417,0.272 -2.40435,-0.3595 0.39357,-0.5053 1.27823,-0.2578 2.53341,-0.294 l -0.0149,-0.9048 c -0.80948,-0.021 -2.09693,0.1673 -2.69297,-0.139 0.13261,-0.9364 0.81126,-0.3447 2.6373,-0.5297 l 0.0142,-0.8641 -2.5366,-0.105 c 0.12304,-0.9148 0.62298,-0.3677 2.26146,-0.7761 z m -21.71714,5.5703 c -0.88217,-1.8689 -1.5548,-6.4145 1.63599,-7.4297 -0.31805,0.9028 -0.48044,0.7184 -0.55242,1.8654 1.70761,0.3922 2.13381,-0.1436 2.26358,0.8152 l -2.55043,0.084 0.0404,0.8449 c 1.95617,0.1688 2.49476,-0.4067 2.62241,0.5237 -0.59178,0.3078 -1.89093,0.1234 -2.71176,0.1355 l 0.007,0.9119 c 1.27007,0.034 2.13062,-0.2152 2.53625,0.2904 -0.33543,0.6304 -1.72747,0.3404 -2.41889,0.3496 l 0.003,0.9173 c 0.4262,0.012 0.83608,-0.01 1.25447,0 0.63043,0.01 0.62086,-0.088 0.78325,0.3744 -0.38683,0.5298 -2.27103,0.3982 -2.9128,0.3184 z m 4.61297,-7.4002 c 1.29454,-1.6293 3.50317,-3.2685 6.65105,-3.3355 2.41144,-0.051 5.80433,1.4428 6.75246,3.178 l -4.84593,2.9947 c -0.38187,0.1433 -1.01372,-0.3854 -1.89235,-0.3499 -1.92638,0.078 -0.33436,1.2211 -3.5372,-0.6209 -0.76197,-0.4386 -2.69687,-1.4051 -3.12803,-1.8664 z m -2.41073,1.0899 c 0.44818,-1.6165 2.37208,-3.4581 3.48686,-4.2318 3.42019,-2.3728 8.12216,-2.3185 11.503,0.058 1.00592,0.7074 3.01066,2.6288 3.39998,4.1691 -0.5971,0.041 -1.191,0.2804 -1.14881,-0.2188 0.0213,-0.2496 0.60525,0.051 -0.2989,-1.1198 -1.63209,-2.1132 -3.73187,-3.624 -6.67587,-3.9368 -2.15296,-0.229 -4.21763,0.2904 -5.81036,1.2027 -1.17753,0.6741 -3.12307,2.3519 -3.5138,3.7067 2.27386,0.745 0.45917,-0.054 3.13405,1.3761 0.56342,0.3011 1.05131,0.5897 1.57288,0.8857 1.23143,0.6993 1.32255,0.4869 1.11761,0.9584 -0.42513,0.1408 -2.55362,-1.2831 -3.18157,-1.6207 -2.6763,-1.4385 -1.35836,-1.0573 -3.58507,-1.2296 z m 10.55843,-10.301 c 0.55206,-1.1428 2.19266,-3.6255 2.39761,-4.2506 l 0.8304,0.1255 c 0.30742,0.4138 1.11513,2.3409 1.29135,2.9543 -1.06513,-0.1603 -1.75229,-0.7166 -2.58057,-0.1365 -0.62759,0.4393 -1.38318,0.9924 -1.93879,1.3069 z m -7.19355,-1.2254 c 0.28331,-0.7832 0.79921,-2.2905 1.25022,-2.8983 l 0.83821,-0.1198 c 0.23437,0.7127 1.80335,2.9915 2.38733,4.2563 -0.34784,-0.1968 -0.54853,-0.4106 -0.95025,-0.6723 -2.60079,-1.6938 -1.54629,-0.5989 -3.52551,-0.5659 z m -1.21866,0.317 -0.30458,0.8105 c 0.12588,0.1979 -0.28294,0.2011 0.35387,0.1341 l 0.20742,0.057 c 0.52618,-0.4003 1.65408,-0.4297 2.37563,-0.6815 0.53647,-0.065 0.40634,-0.057 0.74708,0.1677 0.32798,0.1975 0.43719,0.3206 0.8531,0.5439 l 0.81197,0.5518 c 0.37336,0.2811 1.12789,0.8357 1.46296,1.1867 0.22941,0.2929 -0.0592,0.4007 0.2677,1.0797 l 0.56625,-0.01 0.12906,-0.5659 c 0.0121,-0.1464 -0.003,-0.4046 -0.002,-0.5623 0.55384,-0.2798 0.65383,-0.3989 1.11939,-0.7131 0.2599,-0.2411 1.21405,-0.8885 1.58599,-1.1172 0.86409,-0.9953 1.71258,-0.3621 3.13441,-0.1171 l 0.73787,0.1827 c 0.46909,-0.065 0.1904,0.1471 0.38329,-0.1408 l -0.31768,-0.8162 -1.23036,-2.9416 c 1.113,0.2277 2.33343,0.5996 3.2851,1.0662 0.78041,0.3826 1.95192,1.2765 2.25153,1.8537 l 0.58504,0.9503 c 0.40031,0.4921 0.8843,1.8625 1.06549,2.6235 l 0.30174,0.9339 c 0.66836,1.9572 1.30021,4.7438 1.67393,6.8787 0.22515,1.2857 0.3255,2.5167 -0.17764,3.7198 -0.33933,0.8112 -1.28887,1.9203 -2.18664,1.9597 0.95486,-3.5071 0.33294,-7.2262 -2.94223,-7.9747 l -0.52548,-4.169 -0.90841,0.1613 0.39145,3.2897 -1.47608,-1.4441 c -0.54037,-0.4071 -0.97969,-0.7141 -1.61862,-1.1134 -1.05733,-0.6613 -2.68553,-1.2782 -4.11303,-1.3661 -1.13356,-0.3043 -3.27092,0.039 -4.34385,0.2737 -3.60706,0.9165 -5.30404,3.4035 -5.73945,3.6425 l 0.34464,-3.3145 -0.84494,-0.1149 -0.51377,4.1566 c -3.22837,0.7159 -3.96801,4.4953 -2.96706,7.9644 -0.96301,-0.094 -1.86859,-1.1428 -2.21855,-2.0508 -0.47761,-1.2425 -0.35067,-2.4253 -0.11949,-3.7365 0.30635,-1.7403 1.0584,-5.3126 1.6672,-6.7394 l 0.27798,-0.8889 c 0.24714,-1.0293 0.9655,-2.7046 1.52856,-3.4503 l 0.12942,-0.2188 c 0.3691,-0.6116 1.51401,-1.4707 2.3469,-1.8689 0.9343,-0.4464 2.08417,-0.7953 3.21845,-1.0137 l -1.25306,2.9415 z m 3.80881,-4.3041 c -2.5944,0.07 -5.81249,1.1154 -7.54174,2.3859 -1.96538,1.4445 -2.50788,3.3999 -3.43863,6.2486 -0.72084,2.2072 -1.57997,5.5111 -1.82781,7.87 -0.29713,2.8295 0.78112,5.1665 3.64818,5.9352 2.72027,0.729 1.40836,0.048 2.60397,2.3125 0.56342,1.0673 1.41332,2.2012 2.08666,2.8274 1.47324,1.3704 3.73257,2.7415 6.6241,3.045 5.73483,0.6021 10.50346,-3.4326 11.63171,-7.7651 3.08264,-0.5861 5.22496,-1.508 5.5267,-4.7895 0.21062,-2.287 -0.97365,-6.4298 -1.58068,-8.5941 -0.74921,-2.6696 -1.76151,-5.6799 -3.46026,-6.9209 -1.83242,-1.3382 -4.88599,-2.4866 -7.72114,-2.5192 l -3.30567,5.4097 c -0.33365,-0.2787 -1.43673,-2.2853 -1.70336,-2.7278 -0.41414,-0.6878 -1.29951,-1.9969 -1.54203,-2.7177 z"
       id="path4956"
       inkscape:connector-curvature="0"
       style="clip-rule:evenodd;fill:#ffffff;fill-rule:evenodd;image-rendering:optimizeQuality;shape-rendering:geometricPrecision;text-rendering:geometricPrecision" />
  </g>
</svg>
