<?xml version="1.0" encoding="UTF-8" standalone="no"?>
<!-- Created with Inkscape (http://www.inkscape.org/) -->

<svg
   xmlns:dc="http://purl.org/dc/elements/1.1/"
   xmlns:cc="http://creativecommons.org/ns#"
   xmlns:rdf="http://www.w3.org/1999/02/22-rdf-syntax-ns#"
   xmlns:svg="http://www.w3.org/2000/svg"
   xmlns="http://www.w3.org/2000/svg"
   xmlns:sodipodi="http://sodipodi.sourceforge.net/DTD/sodipodi-0.dtd"
   xmlns:inkscape="http://www.inkscape.org/namespaces/inkscape"
   width="90"
   height="90"
   viewBox="0 0 90.000001 90.000001"
   id="svg5919"
   version="1.1"
   inkscape:version="0.91 r13725"
   sodipodi:docname="icon-abastecimento.svg">
  <defs
     id="defs5921" />
  <sodipodi:namedview
     id="base"
     pagecolor="#ffffff"
     bordercolor="#666666"
     borderopacity="1.0"
     inkscape:pageopacity="0.0"
     inkscape:pageshadow="2"
     inkscape:zoom="2.8"
     inkscape:cx="47.935579"
     inkscape:cy="70.237798"
     inkscape:document-units="px"
     inkscape:current-layer="layer1"
     showgrid="false"
     units="px"
     inkscape:window-width="1080"
     inkscape:window-height="1897"
     inkscape:window-x="-8"
     inkscape:window-y="-8"
     inkscape:window-maximized="1" />
  <metadata
     id="metadata5924">
    <rdf:RDF>
      <cc:Work
         rdf:about="">
        <dc:format>image/svg+xml</dc:format>
        <dc:type
           rdf:resource="http://purl.org/dc/dcmitype/StillImage" />
        <dc:title></dc:title>
      </cc:Work>
    </rdf:RDF>
  </metadata>
  <g
     inkscape:label="Camada 1"
     inkscape:groupmode="layer"
     id="layer1"
     transform="translate(0,-962.36216)">
    <rect
       class="fil2"
       x="-6.1035156e-005"
       y="962.36212"
       width="90.000122"
       height="90.000122"
       id="rect4649"
       style="clip-rule:evenodd;fill:#00afef;fill-rule:evenodd;image-rendering:optimizeQuality;shape-rendering:geometricPrecision;text-rendering:geometricPrecision" />
    <path
       class="fil0"
       d="m 24.007475,1025.8332 2.3962,0 0,-35.93864 0.0457,-0.1564 c 0.17693,-0.6024 0.47441,-1.1793 1.01726,-1.703 0.49924,-0.4819 1.19774,-0.8999 2.19444,-1.2204 l 0.16842,-0.054 20.50522,0 0.15849,0.046 c 0.61376,0.1783 1.16902,0.4258 1.63847,0.7761 0.51165,0.3819 0.91799,0.8751 1.18356,1.5137 l 0.0833,0.2007 0,27.83564 4.07828,0 1.6789,1.7392 0,6.6943 0.27408,0.267 2.92273,0 0.81658,-0.5659 0,-12.3086 -3.36169,0 0,-7.5651 -1.57713,-0.7886 -1.17754,0.947 0,5.6253 1.57785,0 0,2.1303 -3.70811,0 0,-8.7686 2.00616,-1.6136 0,-3.04444 2.1246,-1.5268 2.39973,0 0.0426,-4.1867 -4.14281,-3.8961 1.45587,-1.5477 4.81827,4.5307 -0.0518,5.0995 2.41853,0 0,12.43024 -0.69496,2.2221 0,13.3677 -2.29336,1.5892 -4.43498,0 -1.54629,-1.508 0,-6.7315 -0.44463,-0.461 -3.18228,0 0,6.5706 1.37361,0 0,2.1302 -30.76438,0 0,-2.1302 z m 16.51983,-26.06814 1.34844,-2.3405 1.83881,1.0566 -1.13818,1.97504 c 0.061,0.036 0.12162,0.074 0.18154,0.1124 1.39843,0.907 2.4586,2.5238 2.63234,4.663 l 0.96372,0 0,-11.72794 -12.96596,0 0,11.72794 1.12009,0 c 0.54143,-2.688 1.88916,-4.3123 3.45424,-5.041 0.79424,-0.36984 1.63953,-0.50744 2.46604,-0.43544 l 0.0986,0.01 z m 2.7302,5.46684 c -0.15601,-1.3392 -0.80771,-2.3327 -1.65584,-2.8823 -0.41414,-0.2684 -0.8797,-0.4304 -1.35589,-0.4719 -0.46484,-0.041 -0.93925,0.036 -1.38424,0.2436 -0.9265,0.4315 -1.74733,1.4296 -2.17281,3.111 l 6.56878,0 z m 20.49529,5.5962 0.11133,-0.3556 0,-9.9883 -4.13784,0 -0.66695,0.4794 0,1.6842 2.87841,1.4392 0,6.7411 1.81505,0 z m -15.2682,-19.45434 -17.22649,0 0,15.98804 17.22649,0 0,-15.98804 z m -19.95066,34.45944 22.73369,0 0,-36.09074 c -0.1046,-0.1812 -0.24359,-0.3305 -0.40953,-0.4546 -0.22338,-0.1667 -0.49711,-0.2954 -0.80736,-0.3968 l -19.90208,0 c -0.56909,0.1993 -0.95238,0.4276 -1.20909,0.6751 -0.19679,0.1901 -0.3216,0.4039 -0.40563,0.6319 l 0,35.63554 z"
       id="path4659"
       inkscape:connector-curvature="0"
       style="clip-rule:evenodd;fill:#ffffff;fill-rule:evenodd;image-rendering:optimizeQuality;shape-rendering:geometricPrecision;text-rendering:geometricPrecision" />
  </g>
</svg>
