<?xml version="1.0" encoding="UTF-8" standalone="no"?>
<!-- Created with Inkscape (http://www.inkscape.org/) -->

<svg
   xmlns:dc="http://purl.org/dc/elements/1.1/"
   xmlns:cc="http://creativecommons.org/ns#"
   xmlns:rdf="http://www.w3.org/1999/02/22-rdf-syntax-ns#"
   xmlns:svg="http://www.w3.org/2000/svg"
   xmlns="http://www.w3.org/2000/svg"
   xmlns:sodipodi="http://sodipodi.sourceforge.net/DTD/sodipodi-0.dtd"
   xmlns:inkscape="http://www.inkscape.org/namespaces/inkscape"
   width="90"
   height="90"
   viewBox="0 0 90.000001 90.000001"
   id="svg5919"
   version="1.1"
   inkscape:version="0.91 r13725"
   sodipodi:docname="icon-noticias.svg">
  <defs
     id="defs5921" />
  <sodipodi:namedview
     id="base"
     pagecolor="#ffffff"
     bordercolor="#666666"
     borderopacity="1.0"
     inkscape:pageopacity="0.0"
     inkscape:pageshadow="2"
     inkscape:zoom="2.8"
     inkscape:cx="47.935579"
     inkscape:cy="70.237798"
     inkscape:document-units="px"
     inkscape:current-layer="layer1"
     showgrid="false"
     units="px"
     inkscape:window-width="1080"
     inkscape:window-height="1897"
     inkscape:window-x="-8"
     inkscape:window-y="-8"
     inkscape:window-maximized="1" />
  <metadata
     id="metadata5924">
    <rdf:RDF>
      <cc:Work
         rdf:about="">
        <dc:format>image/svg+xml</dc:format>
        <dc:type
           rdf:resource="http://purl.org/dc/dcmitype/StillImage" />
        <dc:title></dc:title>
      </cc:Work>
    </rdf:RDF>
  </metadata>
  <g
     inkscape:label="Camada 1"
     inkscape:groupmode="layer"
     id="layer1"
     transform="translate(0,-962.36216)">
    <rect
       style="clip-rule:evenodd;fill:#00afef;fill-rule:evenodd;image-rendering:optimizeQuality;shape-rendering:geometricPrecision;text-rendering:geometricPrecision"
       id="rect4942"
       height="90.000122"
       width="90.000122"
       y="962.36212"
       x="-6.1035156e-005"
       class="fil2" />
    <path
       style="clip-rule:evenodd;fill:#ffffff;fill-rule:evenodd;image-rendering:optimizeQuality;shape-rendering:geometricPrecision;text-rendering:geometricPrecision"
       inkscape:connector-curvature="0"
       id="path4968"
       d="m 19.636274,1017.8973 42.647482,0 c 0.06595,0.6365 0.143601,3.2514 -0.08687,3.6443 -0.25671,0.2255 -35.528754,0 -41.918838,0.079 -0.783602,0.01 -0.682904,-0.031 -0.670494,-0.8248 0.01418,-0.9066 -0.06205,-2.0253 0.02837,-2.8982 z m 24.530306,6.9475 c -0.194305,0.09 -0.108144,2.3905 -0.11098,2.7784 l -6.18656,0 -0.0078,-2.4604 -0.09219,-0.2514 c -0.245364,-0.9995 -1.300213,-0.8087 -1.43566,-0.011 -0.122327,0.7219 0.02907,1.9725 -0.03723,2.793 -0.600643,3e-4 -2.451151,-0.1401 -2.82806,0.1787 -0.301741,0.2549 -0.349253,0.7839 -0.03298,1.0818 0.290393,0.273 0.878627,0.1819 1.33106,0.1811 l 12.295824,0 c 0.45066,8e-4 1.065132,0.083 1.366518,-0.1457 0.327978,-0.2489 0.35528,-0.7701 0.06985,-1.0704 -0.389319,-0.4106 -2.234154,-0.2255 -2.904648,-0.2255 -0.09148,-0.8733 0.03936,-1.8452 -0.02234,-2.71 -0.06276,-0.8843 -1.184977,-1.0719 -1.405166,-0.1411 z m -2.670631,-4.6892 c 0.221253,-0.5971 -0.06808,-1.1286 -0.507391,-1.3077 -0.536466,-0.2191 -1.10449,0.046 -1.309786,0.4808 -0.605608,1.2811 1.370772,2.0314 1.817532,0.8269 z m -13.845654,-6.7769 c 0.237917,-0.3408 0.09893,-23.66771 0.08226,-26.23799 l 26.434,-10e-4 c -0.01418,8.44872 0.07907,17.01559 0.02021,25.45679 -0.0028,0.4117 -0.05673,0.5645 0.07233,0.8173 0.285075,0.8939 1.362972,0.7031 1.420413,-0.184 0.08864,-1.3708 -3.55e-4,-6.8266 -3.55e-4,-8.4668 l 0,-16.94039 c 0,-2.64758 0.245363,-2.22352 -3.425159,-2.22352 l -25.325609,0.008 c -0.944933,0.11737 -0.68716,1.21087 -0.68716,2.12389 l 0,22.58732 c 0,0.9194 -0.03794,1.9175 -0.0043,2.8262 0.03758,1.0109 1.182495,1.1673 1.413321,0.2337 z m 35.752488,-17.80948 c 0.507746,-0.75914 0.346416,-0.81906 0.346061,-2.28167 0,-1.05697 -0.689996,-1.76789 -1.749809,-1.76789 l -4.189615,0 c -1.176113,0 -1.065841,1.27149 -0.274083,1.42148 0.515901,0.0979 3.288649,0.003 4.198833,0.0106 0.691414,0.006 0.586106,0.23331 0.577597,0.87934 -0.01454,1.08853 -0.235081,1.92532 1.091016,1.73775 z m -21.348384,0.0574 c -0.688932,0.36805 -0.604189,1.32361 0.361308,1.36333 l 8.029267,-0.0546 c 0.561287,-0.20034 0.663049,-1.30057 -0.371945,-1.3885 -0.826151,-0.0709 -7.837089,-0.0174 -8.01863,0.0798 z m 0.02411,-4.45306 c -0.7524,0.36237 -0.598871,1.32007 0.335779,1.38425 0.913021,0.0631 7.819006,0.0191 8.038486,-0.0748 0.575115,-0.24679 0.622273,-1.31121 -0.38081,-1.38035 -0.898483,-0.0617 -7.788513,-0.028 -7.993455,0.0709 z m -9.952462,14.81144 17.668997,0 c 1.252346,0 1.243482,-1.4406 0,-1.4406 l -17.668997,0 c -1.268301,0 -1.264046,1.4406 0,1.4406 z m 0,-4.4442 17.668997,0 c 1.206252,0 1.329997,-1.4594 -0.09112,-1.4594 l -17.487456,0 c -1.422895,0 -1.323615,1.4594 -0.09077,1.4594 z m 0.09077,8.9072 17.487456,0 c 1.422186,0 1.296667,-1.459 0.09112,-1.459 l -17.668997,0 c -0.505973,0 -0.899902,0.1567 -0.915858,0.696 -0.01808,0.6148 0.391801,0.7634 1.006628,0.7634 z M 32.8593,995.49437 c -0.01454,-0.81162 -0.102826,-4.55164 0.05567,-5.05974 0.497464,-0.0613 4.816142,-0.0794 4.94237,0.0397 0.245363,0.23189 0.08722,4.31584 0.07446,5.03172 l -5.072143,-0.0117 z m -0.403148,-6.44257 c -1.238872,0.40244 -1.05875,1.50587 -1.05875,2.87026 0,0.79495 -0.09112,3.39006 0.05921,3.93929 0.344288,1.25731 1.57926,1.10732 2.946133,1.10732 4.589925,0 4.973926,0.50278 4.973926,-2.9518 0,-0.80346 0.102471,-3.32624 -0.04326,-3.9361 -0.319469,-1.33886 -1.863272,-1.11052 -2.926631,-1.11052 -0.809487,0 -3.378356,-0.10424 -3.950634,0.0819 z m 27.130378,19.0933 1.837034,1.0814 c -0.313441,0.3844 -0.775448,0.6776 -1.156966,0.9999 -0.332234,0.2798 -0.795658,0.6953 -1.181077,0.9159 l 0.500654,-2.9972 z m 3.943896,-7.4049 c 0.493564,-0.83461 3.127319,-5.52878 3.56947,-6.11914 0.373009,0.14182 0.913021,0.48682 1.259437,0.68857 0.401729,0.23473 0.859835,0.43577 1.093852,0.74106 -0.605607,0.8265 -1.238517,2.11253 -1.763637,3.01917 -0.599226,1.03424 -1.206606,2.03944 -1.770729,3.05634 -0.57476,1.0361 -1.145266,2.0303 -1.768957,3.0572 -0.412721,0.68 -1.420767,2.5816 -1.786684,3.0528 l -2.356836,-1.3775 3.52373,-6.1181 z m 4.675023,-8.05262 c 0.741409,0.31628 1.601953,1.024 2.362863,1.30801 -0.108853,0.32018 -0.23579,0.55065 -0.46307,0.83395 -0.283657,-0.0872 -2.194442,-1.18426 -2.370309,-1.37183 l 0.470516,-0.77049 z m -0.525475,-1.14066 c -0.217707,0.10566 -0.119845,-0.0142 -0.371945,0.22196 l -1.460479,2.45399 c -0.558805,0.98997 -1.09988,1.90582 -1.669676,2.88338 -0.400666,0.68751 -5.580244,9.45395 -5.707535,10.04285 -0.135091,0.6237 -0.211679,1.3112 -0.317696,1.9555 -0.102116,0.6183 -0.675103,3.5173 -0.507746,3.9173 0.416622,0.9956 2.065378,-0.6989 2.707507,-1.2538 1.648402,-1.4254 2.328824,-1.4814 3.381546,-3.3596 0.263447,-0.4705 0.572987,-0.9694 0.837498,-1.4392 l 6.59999,-11.43416 c 1.270429,-2.16927 0.80665,-2.15579 -1.783139,-3.62726 -0.561996,-0.31912 -0.974362,-0.71659 -1.708325,-0.36131 z m -5.37211,24.87458 -42.694993,-4e-4 c 0.0011,-1.3051 -0.120909,-22.71342 0.06382,-23.37824 0.705243,-0.29571 4.277903,0.0748 4.860464,-0.1436 0.467325,-0.17552 0.558804,-0.83395 0.232599,-1.17824 -0.369818,-0.38932 -2.541922,-0.2014 -3.208516,-0.2014 -3.332616,0 -3.389347,0.0628 -3.389347,3.4982 l 0,23.77078 c 0,0.7311 -0.103535,2.7082 0.126936,3.2617 0.387901,0.9315 1.275039,1.0208 2.442287,1.019 l 40.803356,0 c 2.739773,0.011 2.204725,-1.8324 2.204725,-4.6463 0,-0.9158 0.109917,-6.3624 -0.100698,-6.7503 -0.160621,-0.2957 -0.69886,-0.5201 -1.108036,-0.178 -0.354571,0.2972 -0.233308,0.9584 -0.232599,1.4637 0.0014,1.1534 -7.09e-4,2.3075 0,3.461 z"
       class="fil0" />
  </g>
</svg>
