<?xml version="1.0" encoding="UTF-8" standalone="no"?>
<!-- Created with Inkscape (http://www.inkscape.org/) -->

<svg
   xmlns:dc="http://purl.org/dc/elements/1.1/"
   xmlns:cc="http://creativecommons.org/ns#"
   xmlns:rdf="http://www.w3.org/1999/02/22-rdf-syntax-ns#"
   xmlns:svg="http://www.w3.org/2000/svg"
   xmlns="http://www.w3.org/2000/svg"
   xmlns:sodipodi="http://sodipodi.sourceforge.net/DTD/sodipodi-0.dtd"
   xmlns:inkscape="http://www.inkscape.org/namespaces/inkscape"
   width="332.17917"
   height="50.000023"
   viewBox="0 0 332.17917 50.000024"
   id="svg5919"
   version="1.1"
   inkscape:version="0.91 r13725"
   sodipodi:docname="logo-branco.svg">
  <defs
     id="defs5921">
    <clipPath
       id="id9">
      <rect
         x="2116.3101"
         y="18008.43"
         width="1246.66"
         height="1767.91"
         id="rect4463" />
    </clipPath>
    <clipPath
       id="id9-7">
      <rect
         x="2116.3101"
         y="18008.43"
         width="1246.66"
         height="1767.91"
         id="rect4463-6" />
    </clipPath>
  </defs>
  <sodipodi:namedview
     id="base"
     pagecolor="#ffffff"
     bordercolor="#666666"
     borderopacity="1.0"
     inkscape:pageopacity="0.0"
     inkscape:pageshadow="2"
     inkscape:zoom="2.8"
     inkscape:cx="85.146621"
     inkscape:cy="-41.776615"
     inkscape:document-units="px"
     inkscape:current-layer="layer1"
     showgrid="false"
     units="px"
     inkscape:window-width="1080"
     inkscape:window-height="1897"
     inkscape:window-x="-8"
     inkscape:window-y="-8"
     inkscape:window-maximized="1"
     fit-margin-top="0"
     fit-margin-left="0"
     fit-margin-right="0"
     fit-margin-bottom="0" />
  <metadata
     id="metadata5924">
    <rdf:RDF>
      <cc:Work
         rdf:about="">
        <dc:format>image/svg+xml</dc:format>
        <dc:type
           rdf:resource="http://purl.org/dc/dcmitype/StillImage" />
        <dc:title></dc:title>
      </cc:Work>
    </rdf:RDF>
  </metadata>
  <g
     inkscape:label="Camada 1"
     inkscape:groupmode="layer"
     id="layer1"
     transform="translate(-129.15062,-997.00141)">
    <path
       style="clip-rule:evenodd;fill:#ffffff;fill-rule:evenodd;image-rendering:optimizeQuality;shape-rendering:geometricPrecision;text-rendering:geometricPrecision"
       inkscape:connector-curvature="0"
       id="path4479"
       d="m 231.96568,1046.5841 c -4.50879,-0.029 -8.31408,-1.1599 -11.36305,-4.6464 -2.02161,-2.5019 -2.79549,-5.65 -2.82756,-8.8252 l 0,-21.919 c 0.0263,-3.8116 0.96734,-7.1833 3.66456,-9.9748 3.00243,-2.90098 6.45281,-3.66955 10.525,-3.69552 l 7.59193,0 c 3.63663,0.0292 6.92563,0.62501 9.78525,3.00862 3.23522,2.8461 4.36707,6.4445 4.40223,10.6606 l 0,21.9148 c -0.0204,3.2829 -0.79043,6.3464 -2.85962,8.9568 -2.9062,3.3789 -7.03426,4.5003 -11.33303,4.5201 l -7.58571,0 z m 223.06648,-48.31189 c 1.08012,0 2.11679,0.27136 3.10692,0.81117 0.99322,0.53894 1.77434,1.31272 2.34027,2.32062 0.56695,1.0067 0.85045,2.0629 0.85045,3.1659 0,1.0965 -0.27837,2.1417 -0.83391,3.1379 -0.55869,0.9933 -1.33257,1.7683 -2.32576,2.3259 -0.99635,0.5555 -2.04026,0.8327 -3.13797,0.8327 -1.09666,0 -2.14162,-0.2772 -3.13793,-0.8327 -0.99323,-0.5588 -1.76816,-1.3326 -2.3258,-2.3259 -0.55557,-0.9962 -0.83286,-2.0414 -0.83286,-3.1379 0,-1.103 0.28333,-2.1592 0.8494,-3.1659 0.568,-1.0079 1.34708,-1.78256 2.34027,-2.32062 0.99013,-0.54214 2.0268,-0.81117 3.10692,-0.81117 z m 0.006,1.24681 c -0.867,0 -1.69883,0.21593 -2.49235,0.64868 -0.79355,0.4324 -1.41947,1.0522 -1.87782,1.8633 -0.45729,0.808 -0.68801,1.6583 -0.68801,2.543 0,0.8803 0.22439,1.7227 0.67147,2.5193 0.44591,0.7998 1.06874,1.4225 1.86953,1.8727 0.79871,0.4488 1.6388,0.6735 2.51718,0.6735 0.88044,0 1.72054,-0.2247 2.51718,-0.6735 0.79871,-0.4502 1.42259,-1.072 1.8716,-1.8727 0.449,-0.7966 0.67456,-1.639 0.67456,-2.5193 0,-0.8847 -0.23081,-1.735 -0.68802,-2.543 -0.45831,-0.8103 -1.08321,-1.4309 -1.8809,-1.8633 -0.79974,-0.43246 -1.63052,-0.64868 -2.49442,-0.64868 z m -2.85137,8.41838 0,-6.6679 1.35224,0 c 1.26841,0 1.98227,0 2.13333,0.029 0.44904,0.035 0.79665,0.1255 1.04703,0.2656 0.24627,0.1371 0.45417,0.3507 0.62283,0.6402 0.16544,0.2859 0.25035,0.6063 0.25035,0.9538 0,0.4824 -0.15727,0.892 -0.47179,1.2346 -0.31452,0.3423 -0.75527,0.5532 -1.32222,0.6373 0.20279,0.076 0.36004,0.1604 0.46969,0.2509 0.10855,0.09 0.26086,0.2597 0.45213,0.5109 0.0496,0.067 0.21301,0.3373 0.49351,0.8132 l 0.78319,1.344 -1.68433,0 -0.55349,-1.0851 c -0.37349,-0.7275 -0.68183,-1.1879 -0.926,-1.3753 -0.24627,-0.1896 -0.55556,-0.2859 -0.93113,-0.2859 l -0.35073,0 0,2.7449 -1.36359,0 z m 1.36362,-3.8064 0.54728,0 c 0.7801,0 1.26637,-0.029 1.45364,-0.087 0.1882,-0.061 0.33728,-0.1634 0.44693,-0.3125 0.10971,-0.1488 0.16253,-0.3178 0.16253,-0.508 0,-0.1838 -0.0528,-0.3487 -0.15932,-0.4914 -0.1065,-0.143 -0.25882,-0.248 -0.45525,-0.3096 -0.19666,-0.061 -0.67972,-0.093 -1.44844,-0.093 l -0.54728,0 0,1.8012 z m -314.12872,42.2171 -0.23898,-0.047 -0.28129,-0.058 -0.2772,-0.061 -0.27311,-0.067 -0.27224,-0.07 -0.27107,-0.076 -0.26991,-0.082 -0.2629,-0.085 -0.26174,-0.09 -0.2629,-0.096 -0.25765,-0.1022 -0.25356,-0.1079 -0.25357,-0.1109 -0.24948,-0.1196 -0.24715,-0.1226 -0.24101,-0.1284 -0.23694,-0.1313 -0.23897,-0.14 -0.23577,-0.1459 -0.2276,-0.1489 -0.22438,-0.1546 -0.22235,-0.1605 -0.2203,-0.1663 -0.21096,-0.1692 -0.20805,-0.1722 -0.20688,-0.1838 -0.20279,-0.1868 -0.19462,-0.1896 -0.19025,-0.1926 -0.18733,-0.2014 -0.18208,-0.2042 -0.17186,-0.2043 -0.16661,-0.2071 -0.16661,-0.216 -0.16253,-0.2188 -0.15523,-0.2247 -0.14998,-0.2276 -0.1459,-0.2334 -0.13976,-0.2363 -0.13131,-0.2364 -0.12839,-0.2393 -0.1243,-0.248 -0.11701,-0.248 -0.10854,-0.2451 -0.10563,-0.2539 -0.10038,-0.2597 -0.0931,-0.2597 -0.0858,-0.2567 -0.0808,-0.2597 -0.0776,-0.2656 -0.0715,-0.2713 -0.0642,-0.2685 -0.0589,-0.2684 -0.0537,-0.2714 -0.0487,-0.2772 -0.0435,-0.2743 -0.0373,-0.2742 -0.0321,-0.2802 -0.0292,-0.283 -0.0204,-0.283 -0.0175,-0.2801 -0.0117,-0.286 -0.006,-0.2889 -0.002,-0.2743 0,-23.5485 0.003,-0.3765 0.0146,-0.3942 0.0233,-0.3889 0.0321,-0.3872 0.0423,-0.3858 0.0528,-0.3828 0.0622,-0.3796 0.0724,-0.3755 0.0829,-0.3715 0.0942,-0.3706 0.10359,-0.367 0.11584,-0.3613 0.1243,-0.358 0.13656,-0.3537 0.14706,-0.3498 0.15406,-0.3341 0.16049,-0.328 0.17478,-0.3312 0.18412,-0.3236 0.1955,-0.3186 0.206,-0.3116 0.21534,-0.3052 0.22439,-0.2968 0.23489,-0.2889 0.24423,-0.2801 0.2524,-0.2743 0.2629,-0.2655 0.27195,-0.2568 0.27836,-0.248 0.28654,-0.2392 0.2938,-0.2276 0.30627,-0.2218 0.31245,-0.21301 0.32073,-0.20133 0.32692,-0.19259 0.33521,-0.18382 0.34037,-0.17216 0.34557,-0.1634 0.35178,-0.15465 0.35692,-0.14298 0.36211,-0.13422 0.36523,-0.12255 0.37037,-0.1138 0.37556,-0.10504 0.38073,-0.0963 0.38385,-0.0875 0.38694,-0.0788 0.33833,-0.0584 0.1138,-0.0292 0.15202,-0.0292 0.14998,-0.0292 0.15611,-0.0292 0.15727,-0.0292 0.15407,-0.0292 0.15523,-0.0292 0.15815,-0.0292 0.16049,0 0.1561,0 0.15611,0 0.16136,0 0.15815,0 0.15611,0 0.16048,-0.003 0.15202,-10e-4 16.8578,0 3.39556,8.62445 -20.41372,0 -0.0683,0 -0.0735,0 -0.10242,0 -0.12722,0 -0.14911,0 -0.17186,0.029 -0.18937,0.029 -0.1138,0 -0.22439,0.041 -0.25969,0.055 -0.24102,0.061 -0.22438,0.064 -0.20805,0.07 -0.19346,0.076 -0.17886,0.079 -0.16253,0.079 -0.14998,0.082 -0.13772,0.085 -0.12635,0.085 -0.11584,0.088 -0.10563,0.09 -0.0983,0.091 -0.0931,0.096 -0.0943,0.1108 -0.091,0.1167 -0.0837,0.1197 -0.0785,0.1225 -0.0735,0.1284 -0.0695,0.1401 -0.0662,0.1488 -0.061,0.1576 -0.0569,0.1692 -0.0528,0.1809 -0.0467,0.1955 -0.0414,0.2101 -0.0353,0.2218 -0.0292,0.2392 -0.0204,0.251 -0.0117,0.2655 -0.003,0.3052 0,7.4914 25.12014,0 0,5.4752 -0.087,3.2073 -24.9753,0 0,7.0228 0.002,0.1692 0.003,0.1488 0.006,0.143 0.0117,0.1401 0.0117,0.1371 0.0146,0.1284 0.0175,0.1255 0.0204,0.1255 0.0204,0.1196 0.0233,0.1138 0.0263,0.1109 0.0292,0.1079 0.0292,0.1051 0.0309,0.099 0.0321,0.096 0.0341,0.096 0.0374,0.093 0.0374,0.088 0.0394,0.085 0.0414,0.085 0.0423,0.082 0.0435,0.079 0.0444,0.076 0.0487,0.079 0.0508,0.076 0.0516,0.073 0.0537,0.073 0.0569,0.07 0.0581,0.07 0.061,0.067 0.0642,0.07 0.061,0.061 0.061,0.058 0.0703,0.064 0.0724,0.061 0.0715,0.058 0.0735,0.058 0.0744,0.053 0.0744,0.053 0.0797,0.053 0.0788,0.047 0.0797,0.047 0.0817,0.044 0.0829,0.041 0.0878,0.041 0.089,0.041 0.089,0.038 0.0972,0.035 0.0983,0.035 0.10037,0.032 0.10242,0.032 0.1065,0.029 0.11059,0.029 0.11497,0.029 0.11496,0.029 0.12197,0.029 0.12635,0.029 0.12722,0.029 0.13334,0.029 0.1386,0 0.14181,0 0.14269,0 0.1491,0 0.16983,8e-4 20.70136,0 0,8.6245 -20.95586,0 -0.15319,-9e-4 -0.15932,0 -0.16136,0 -0.15932,0 -0.15406,0 -0.16049,0 -0.16048,0 -0.15407,0 -0.15406,-0.029 -0.15611,-0.029 -0.15815,-0.029 -0.15202,-0.029 -0.15523,-0.029 -0.15611,-0.029 -0.15407,-0.029 -0.11788,-0.029 z m 290.65086,-45.1615 -17.82931,45.2931 9.28142,0 13.38363,-34.2311 13.35877,34.2311 9.27833,0 -17.80034,-45.357 c -0.97563,-2.26896 -2.26577,-4.09702 -4.97437,-4.12095 -2.6072,-0.0292 -3.80529,1.8374 -4.69813,4.18485 z m -161.43006,40.838 c -1.86331,-2.512 -2.45407,-5.5714 -2.46959,-8.6378 l 0,-35.86362 8.62445,0 0,35.83962 c 0.0423,4.1364 3.40796,4.5864 6.46729,4.5957 l 18.85355,0 -3.39451,8.6244 -15.40629,0 c -4.85433,0 -9.36934,-0.5368 -12.6749,-4.5583 z m 112.80063,-9.0776 15.06072,-31.9291 c 0.0487,-0.1021 0.0972,-0.2042 0.14589,-0.3081 0.98596,-2.03405 2.17783,-3.50204 4.62983,-3.64998 2.74379,0.1313 4.4664,1.65415 4.56983,4.20028 0.0569,1.4155 0.0146,0.3922 0.0204,0.5877 0,14.9116 0,29.8224 0,44.7351 l -8.62443,0 0,-26.9161 -11.01024,23.3872 c -1.26946,2.1313 -2.02266,3.6582 -4.79332,3.8146 -2.76964,-0.1576 -3.5228,-1.6845 -4.79226,-3.8146 l -11.01025,-23.3872 0,26.9161 -8.62446,0 c 0,-14.9116 0,-29.8223 0,-44.7351 0.006,-0.1955 -0.0353,0.8278 0.0204,-0.5877 0.10359,-2.54613 1.82608,-4.0681 4.56983,-4.20028 2.45203,0.14881 3.64387,1.61593 4.62986,3.64998 0.0487,0.1021 0.0972,0.2072 0.1459,0.3081 l 15.05967,31.9291 z m -195.16325,9.8689 -17.82932,-45.29272 9.28142,0 13.38364,34.23072 13.35877,-34.23072 9.27833,0 -17.80034,45.35812 c -0.97563,2.2687 -2.26475,4.097 -4.97437,4.1198 -2.6072,0.029 -3.80529,-1.8377 -4.69813,-4.1852 z m 126.07974,0.7243 c -3.47834,-3.0592 -4.36704,-6.5863 -4.39394,-11.0869 l 0,-34.93012 8.6234,0 0,34.33342 0.002,0.2743 c 0.0902,4.2738 1.83746,5.7389 6.06896,5.8259 l 0.2845,0 6.6732,0 c 4.69087,-0.029 6.29244,-1.292 6.32658,-6.045 l 0,-34.39033 8.62341,0 0,34.93133 c -0.0204,2.9217 -0.39004,5.6832 -1.93573,8.2179 -3.27762,5.025 -7.33431,5.9032 -12.94496,5.9117 l -6.81387,0 c -4.10531,0 -7.3105,-0.2363 -10.51467,-3.0439 z m -85.95995,-10.6501 0.006,0.4263 c 0.1491,3.6903 1.99782,4.6194 5.52066,4.6433 l 7.72329,0 c 3.72665,-0.029 5.43373,-1.25 5.46892,-5.0728 l 0,-21.4885 -0.003,-0.3096 c -0.0444,-1.3924 -0.20659,-3.0851 -1.39759,-4.0048 -1.14839,-0.8173 -2.71271,-0.9209 -4.07321,-0.9352 l -7.71608,0 -0.24219,0 c -1.33359,0.029 -2.93619,0.1634 -4.01529,1.0449 -1.09564,0.9653 -1.23634,2.6177 -1.27048,3.9666 l -0.001,0.2305 0,21.497 z"
       class="fil0" />
  </g>
</svg>
